<?xml version="1.0" encoding="UTF-8" standalone="no"?>
<!-- Generator: Adobe Illustrator 27.5.0, SVG Export Plug-In . SVG Version: 6.00 Build 0)  -->

<svg
   version="1.1"
   id="Layer_1"
   x="0px"
   y="0px"
   viewBox="0 0 291.04532 210.52005"
   xml:space="preserve"
   sodipodi:docname="kids_winter_suits.svg"
   inkscape:export-filename="kids.svg"
   inkscape:export-xdpi="96"
   inkscape:export-ydpi="96"
   width="291.04532"
   height="210.52005"
   inkscape:version="1.4 (86a8ad7, 2024-10-11)"
   xmlns:inkscape="http://www.inkscape.org/namespaces/inkscape"
   xmlns:sodipodi="http://sodipodi.sourceforge.net/DTD/sodipodi-0.dtd"
   xmlns="http://www.w3.org/2000/svg"
   xmlns:svg="http://www.w3.org/2000/svg"><defs
   id="defs211" /><sodipodi:namedview
   id="namedview211"
   pagecolor="#505050"
   bordercolor="#eeeeee"
   borderopacity="1"
   inkscape:showpageshadow="0"
   inkscape:pageopacity="0"
   inkscape:pagecheckerboard="0"
   inkscape:deskcolor="#505050"
   showguides="true"
   inkscape:zoom="5.543415"
   inkscape:cx="145.48793"
   inkscape:cy="105.26002"
   inkscape:window-width="2560"
   inkscape:window-height="1369"
   inkscape:window-x="2481"
   inkscape:window-y="-8"
   inkscape:window-maximized="1"
   inkscape:current-layer="Layer_1"><inkscape:page
     x="0"
     y="0"
     width="291.04532"
     height="210.52005"
     id="page2"
     margin="0"
     bleed="0" /></sodipodi:namedview>






<g
   id="g201"
   style="display:inline"
   inkscape:label="kids"
   transform="translate(-63.845811,-170.82821)">
	
	<g
   id="g127"
   inkscape:label="boy"
   transform="translate(0.0856898,-0.0856898)">
		
		
		
		
		
		
		
		
		
		
		
		
		
		
		
		
	<g
   id="g221"
   inkscape:label="lgesboots"
   transform="matrix(1.8208566,0,0,0.92372186,-598.39344,196.70053)"
   style="display:inline"><path
     style="clip-rule:evenodd;fill:#3a2b21;fill-rule:evenodd"
     d="m 402.712,186.906 -3.114,-5.837 c 0,0 -0.357,-23.846 -2.25,-33.002 -1.895,-9.156 7.579,-8.315 9.999,-7.262 2.421,1.052 4.421,5.789 4.421,5.789 0,0 -1.373,10.206 -1.633,34.047 0,0 -4.156,5.95 -7.423,6.265 z"
     id="path267" /><path
     style="clip-rule:evenodd;fill:#333333;fill-rule:evenodd"
     d="m 399.598,176.457 c 0,0 4.646,2.107 10.26,-0.351 0,0 0.792,-0.528 0.792,1.184 0,1.711 0,5.904 0,9.441 0,3.537 0,5.726 0,7.579 0,1.853 -7.121,7.804 -17.674,4.884 0,0 -2.357,-0.729 -2.021,-3.706 0.338,-2.975 2.864,-8.253 8.421,-9.095 0,0 0.493,-0.39 0.493,-2.337 0,-1.947 -2.262,-7.314 -0.271,-7.599 z"
     id="path268" /><path
     style="clip-rule:evenodd;fill:#999999;fill-rule:evenodd"
     d="m 410.649,191.886 v 2.425 c 0,1.853 -7.121,7.804 -17.674,4.884 0,0 -2.357,-0.729 -2.021,-3.706 0,0 1.374,1.712 7.004,1.606 5.634,-0.103 11.535,-3.157 12.691,-5.209 z"
     id="path269" /><path
     style="clip-rule:evenodd;fill:#3a2b21;fill-rule:evenodd"
     d="m 423.138,186.906 3.119,-5.837 c 0,0 0.352,-23.846 2.248,-33.002 1.893,-9.156 -7.579,-8.315 -9.999,-7.262 -2.424,1.052 -4.422,5.789 -4.422,5.789 0,0 1.373,10.206 1.631,34.047 0,0 4.158,5.95 7.423,6.265 z"
     id="path270" /><path
     style="clip-rule:evenodd;fill:#333333;fill-rule:evenodd"
     d="m 426.257,176.457 c 0,0 -4.648,2.107 -10.262,-0.351 0,0 -0.793,-0.528 -0.793,1.184 0,1.711 0,5.904 0,9.441 0,3.537 0,5.726 0,7.579 0,1.853 7.119,7.804 17.672,4.884 0,0 2.357,-0.729 2.022,-3.706 -0.337,-2.975 -2.864,-8.253 -8.42,-9.095 0,0 -0.493,-0.39 -0.493,-2.337 0,-1.947 2.261,-7.314 0.274,-7.599 z"
     id="path271" /><path
     style="clip-rule:evenodd;fill:#999999;fill-rule:evenodd"
     d="m 415.202,191.886 v 2.425 c 0,1.853 7.119,7.804 17.672,4.884 0,0 2.357,-0.729 2.022,-3.706 0,0 -1.376,1.712 -7.006,1.606 -5.629,-0.103 -11.534,-3.157 -12.688,-5.209 z"
     id="path272" /></g><g
   id="g309"
   transform="matrix(1.7606838,0,0,1.3342353,-572.1233,142.17319)"
   style="display:inline">
		<path
   style="clip-rule:evenodd;fill:#d88628;fill-rule:evenodd"
   d="m 435.018,39.917 c 3.999,11.158 7.157,24.209 11.578,26.735 4.421,2.526 -19.576,-0.421 -25.473,-14.525 -5.896,-14.106 13.895,-12.21 13.895,-12.21 z"
   id="path260" />
		
		
		<path
   style="clip-rule:evenodd;fill:#005d9c;fill-rule:evenodd"
   d="m 397.331,90.955 c 0,0 -16.518,12.779 -17.989,19.305 -1.475,6.525 12.513,10.557 17.455,8.234 4.939,-2.323 0.534,-27.539 0.534,-27.539 z"
   id="path263" />
		<path
   style="clip-rule:evenodd;fill:#005d9c;fill-rule:evenodd"
   d="m 428.56,90.955 c 0,0 16.517,12.779 17.992,19.305 1.472,6.525 -12.516,10.557 -17.455,8.234 -4.94,-2.323 -0.537,-27.539 -0.537,-27.539 z"
   id="path264" />
		<path
   style="clip-rule:evenodd;fill:#87491f;fill-rule:evenodd"
   d="m 374.723,107.997 c 6.801,0.499 22.304,1.569 29.79,0.406 h 8.418 8.42 c 7.486,1.164 22.992,0.093 29.79,-0.406 11.052,-0.814 15.988,9.502 12.417,19.142 -2.105,5.684 -11.472,7.262 -22.631,5.578 -11.155,-1.683 -27.996,-1.894 -27.996,-1.894 0,0 -16.839,0.211 -27.997,1.894 -11.156,1.684 -20.525,0.105 -22.63,-5.578 -3.57,-9.64 1.367,-19.956 12.419,-19.142 z"
   id="path265" />
		<path
   style="clip-rule:evenodd;fill:#da7027;fill-rule:evenodd"
   d="m 374.408,112.281 c -5.42,-0.399 -8.333,2.922 -8.865,7.151 -1.431,11.399 10.608,10.267 18.749,9.036 17.178,-2.59 40.102,-2.59 57.276,0 7.999,1.208 19.763,2.427 18.798,-8.618 -0.389,-4.427 -3.314,-7.98 -8.913,-7.569 -24.972,1.841 -52.069,1.841 -77.045,0 z"
   id="path266" />
		
		
		
		
		
		
		<path
   style="clip-rule:evenodd;fill:#0077bd;fill-rule:evenodd"
   d="m 428.135,89.668 c 6.899,22.172 7.107,29.437 7.107,49.47 0,6.665 2.278,8.068 -0.351,10.525 -6.441,6.008 -37.481,6.008 -43.917,0 -2.632,-2.458 -0.351,-3.861 -0.351,-10.525 0,-20.033 0.202,-27.298 7.104,-49.47 0,0 7.617,-0.913 15.202,-1.145 7.589,0.232 15.206,1.145 15.206,1.145 z"
   id="path273" />
		<path
   style="clip-rule:evenodd;fill:#f29a33;fill-rule:evenodd"
   d="m 413.928,154.163 c -0.663,0.007 -1.326,0.007 -1.989,0 V 93.562 c 0,-0.55 0.443,-0.995 0.992,-0.995 0.551,0 0.997,0.445 0.997,0.995 z"
   id="path274" />
		<path
   style="clip-rule:evenodd;fill:#fff5ea;fill-rule:evenodd"
   d="m 435.681,149.347 c -6.439,6.008 -38.319,7.165 -45.6,-0.104 -1.525,-1.52 -0.833,-8.449 1.458,-7.68 20.53,6.885 36.56,2.307 42.245,0.152 3.401,-1.289 3.35,6.278 1.897,7.632 z"
   id="path275" />
		
		
		<path
   style="clip-rule:evenodd;fill:#edd1b3;fill-rule:evenodd"
   d="m 426.915,83.953 c 0,0 0.546,0.018 1.138,0.487 -3.785,4.31 -9.328,7.044 -15.481,7.044 v 0 c -6.302,0 -11.965,-2.867 -15.753,-7.36 0.236,-0.203 0.564,-0.275 1.006,-0.215 1.493,0.204 13.241,9.191 29.09,0.044 z"
   id="path278" /><g
   id="g120"
   style="display:inline"
   transform="matrix(0.56796115,0,0,0.74949299,324.94381,-106.55781)"
   inkscape:label="g120">
			<path
   style="fill:#c9771d"
   d="m 194.714,224.718 c 0,22.877 -18.545,41.422 -41.421,41.422 -22.877,0 -41.421,-18.545 -41.421,-41.422 0,-22.877 18.544,-41.421 41.421,-41.421 22.876,0 41.421,18.544 41.421,41.421 z"
   id="path107" />
			<g
   id="g110">
				<path
   style="fill:#ffd097"
   d="m 116.171,245.021 c -4.087,0 -7.395,-3.311 -7.395,-7.394 v 0 c 0,-4.082 3.308,-7.393 7.395,-7.393 h 75.048 c 4.082,0 7.393,3.311 7.393,7.393 v 0 c 0,4.083 -3.311,7.394 -7.393,7.394 z"
   id="path108" />
				<g
   id="g109">
					<path
   style="fill:#f5be7d"
   d="m 116.171,233.577 c -2.234,0 -4.053,1.817 -4.053,4.051 0,2.234 1.819,4.053 4.053,4.053 h 75.048 c 2.233,0 4.052,-1.818 4.052,-4.053 0,-2.233 -1.819,-4.051 -4.052,-4.051 z"
   id="path109" />
				</g>
			</g>
			<path
   style="fill:#ffd097"
   d="m 148.883,267.404 c -18.552,0 -33.59,-15.042 -33.59,-33.595 v 0 c 0,-18.549 15.038,-33.59 33.59,-33.59 h 8.824 c 18.551,0 33.592,15.041 33.592,33.59 v 0 c 0,18.553 -15.041,33.595 -33.59,33.595 z"
   id="path110" />
			<path
   style="fill:#c9771d"
   d="m 108.821,224.395 c 0.119,10e-4 0.237,0.009 0.357,0.009 h 13.169 c 19.997,0 37.257,-11.719 45.299,-28.662 -0.119,-10e-4 -0.236,-0.009 -0.355,-0.009 h -13.168 c -20.001,-0.001 -37.261,11.719 -45.302,28.662 z"
   id="path111" />
			<path
   style="fill:#d68738"
   d="m 125.12,214.624 c 0.062,-0.018 0.124,-0.03 0.186,-0.048 l 6.771,-1.933 c 10.281,-2.934 17.434,-11.491 19.083,-21.383 -0.061,0.018 -0.123,0.031 -0.184,0.049 l -6.77,1.931 c -10.284,2.936 -17.437,11.493 -19.086,21.384 z"
   id="path112" />
			<path
   style="fill:#c9771d"
   d="m 153.292,257.739 c -5.356,0 -10.716,-1.874 -14.896,-5.617 -0.614,-0.553 -0.667,-1.496 -0.113,-2.114 0.549,-0.613 1.496,-0.659 2.108,-0.112 7.237,6.482 18.57,6.483 25.8,0 0.614,-0.555 1.561,-0.506 2.114,0.112 0.55,0.618 0.503,1.562 -0.116,2.114 -4.176,3.743 -9.538,5.617 -14.897,5.617 z"
   id="path113" />
			<path
   style="fill:#e77544"
   d="m 152.556,243.599 c -2.219,0 -4.014,-1.799 -4.014,-4.016 0,0 1.795,-10.932 4.014,-10.932 v 0 c 2.218,0 4.012,10.932 4.012,10.932 0,2.217 -1.795,4.016 -4.012,4.016 z"
   id="path114" />
			<path
   style="fill:#171e21"
   d="m 177.389,233.625 c 0,2.866 -2.321,5.189 -5.187,5.189 -2.866,0 -5.188,-2.322 -5.188,-5.189 0,-2.865 2.322,-5.189 5.188,-5.189 2.865,0 5.187,2.324 5.187,5.189 z"
   id="path115" />
			<path
   style="fill:#f7b27b"
   d="m 183.68,246.308 c 0,2.865 -2.321,5.188 -5.187,5.188 -2.867,0 -5.189,-2.322 -5.189,-5.188 0,-2.865 2.322,-5.189 5.189,-5.189 2.865,-0.001 5.187,2.323 5.187,5.189 z"
   id="path116" />
			<path
   style="fill:#f7b27b"
   d="m 133.412,246.308 c 0,2.865 -2.321,5.188 -5.186,5.188 -2.867,0 -5.189,-2.322 -5.189,-5.188 0,-2.865 2.322,-5.189 5.189,-5.189 2.864,-0.001 5.186,2.323 5.186,5.189 z"
   id="path117" />
			<path
   style="fill:#171e21"
   d="m 137.604,233.625 c 0,2.866 -2.323,5.189 -5.188,5.189 -2.865,0 -5.188,-2.322 -5.188,-5.189 0,-2.865 2.323,-5.189 5.188,-5.189 2.865,0 5.188,2.324 5.188,5.189 z"
   id="path118" />
			<path
   style="fill:#ffffff"
   d="m 171.757,231.625 c 0,0.86 -0.696,1.557 -1.556,1.557 -0.86,0 -1.557,-0.696 -1.557,-1.557 0,-0.859 0.697,-1.557 1.557,-1.557 0.86,0 1.556,0.698 1.556,1.557 z"
   id="path119" />
			<path
   style="fill:#ffffff"
   d="m 131.973,231.625 c 0,0.86 -0.697,1.557 -1.557,1.557 -0.859,0 -1.556,-0.696 -1.556,-1.557 0,-0.859 0.697,-1.557 1.556,-1.557 0.86,0 1.557,0.698 1.557,1.557 z"
   id="path120" />
		</g><path
   style="clip-rule:evenodd;fill:#fff5ea;fill-rule:evenodd"
   d="m 426.915,83.953 c 0,0 1.919,0.061 2.483,3.057 0.565,2.993 -0.225,3.2 0.734,5.523 0.965,2.323 -4.243,4.698 -15.105,5.112 -10.863,0.413 -18.842,-1.188 -19.579,-2.994 -0.735,-1.807 1.359,-4.079 1.02,-6.868 -0.34,-2.788 -0.135,-4.076 1.356,-3.874 1.494,0.204 13.242,9.191 29.091,0.044 z"
   id="path276" /><path
   style="clip-rule:evenodd;fill:#edd1b3;fill-rule:evenodd"
   d="m 409.806,97.689 c -1.913,-0.041 -3.69,-0.149 -5.296,-0.308 -0.129,-2.986 -0.219,-8.52 5.455,-7.801 -1.695,2.526 -0.862,5.995 -0.159,8.109 z"
   id="path277" /><path
   style="clip-rule:evenodd;fill:#fff5ea;fill-rule:evenodd"
   d="m 410.945,88.693 c -4.583,-0.087 -2.647,20.193 -2.475,23.103 0.255,4.208 0.655,5.073 -2.409,5.175 -2.489,0.083 -5.718,0.051 -7.148,-1.058 -0.93,-0.719 3.116,-27.942 4.067,-28.217 1.54,-0.448 6.858,-1.157 7.965,0.997 z"
   id="path280" />
		<path
   style="clip-rule:evenodd;fill:#fff5ea;fill-rule:evenodd"
   d="m 416.809,103.244 c 0.869,0 1.579,-0.709 1.579,-1.579 0,-0.869 -0.71,-1.578 -1.579,-1.578 -0.869,0 -1.576,0.709 -1.576,1.578 -10e-4,0.871 0.706,1.579 1.576,1.579 z"
   id="path279" />
		
		<path
   style="clip-rule:evenodd;display:inline;fill:#fff5ea;fill-rule:evenodd"
   d="m 416.809,112.505 c 0.869,0 1.579,-0.708 1.579,-1.578 0,-0.87 -0.71,-1.579 -1.579,-1.579 -0.869,0 -1.576,0.708 -1.576,1.579 -10e-4,0.869 0.706,1.578 1.576,1.578 z"
   id="path281" />
		<path
   style="clip-rule:evenodd;display:inline;fill:#fff5ea;fill-rule:evenodd"
   d="m 416.809,121.767 c 0.869,0 1.579,-0.709 1.579,-1.579 0,-0.869 -0.71,-1.579 -1.579,-1.579 -0.869,0 -1.576,0.71 -1.576,1.579 -10e-4,0.87 0.706,1.579 1.576,1.579 z"
   id="path282" />
		<path
   style="clip-rule:evenodd;display:inline;fill:#fff5ea;fill-rule:evenodd"
   d="m 416.809,131.027 c 0.869,0 1.579,-0.708 1.579,-1.578 0,-0.87 -0.71,-1.579 -1.579,-1.579 -0.869,0 -1.576,0.709 -1.576,1.579 -10e-4,0.87 0.706,1.578 1.576,1.578 z"
   id="path283" />
		<path
   style="clip-rule:evenodd;display:inline;fill:#fff5ea;fill-rule:evenodd"
   d="m 416.809,140.289 c 0.869,0 1.579,-0.709 1.579,-1.579 0,-0.87 -0.71,-1.579 -1.579,-1.579 -0.869,0 -1.576,0.709 -1.576,1.579 -10e-4,0.87 0.706,1.579 1.576,1.579 z"
   id="path284"
   inkscape:label="path284" />
		
		
		
		<path
   style="clip-rule:evenodd;display:inline;fill:#f29a33;fill-rule:evenodd"
   d="m 393.282,50.712 -1.765,-1.424 c 5.134,-15.396 26.116,-25.241 39.098,-15.321 8.673,6.629 7.56,18.621 4.589,27.211 0,0 -5.129,-19.983 -15.654,-19.876 -10.526,0.106 -26.268,9.41 -26.268,9.41 z"
   id="path288" />
		
		
		<path
   style="clip-rule:evenodd;display:inline;fill:#87491f;fill-rule:evenodd"
   d="m 389.609,64.178 c 0,-0.329 0.308,1.064 1.121,0.86 0.285,-0.071 0.699,-0.392 0.992,-1.265 7.908,-23.47 35.919,-21.434 41.27,0.54 0.561,2.309 1.987,2.206 2.546,-0.283 8.849,-39.478 -56.912,-33.763 -45.929,0.148 z"
   id="path291" />
		
		<path
   style="clip-rule:evenodd;fill:#fff5ea;fill-rule:evenodd"
   d="m 450.759,67.401 c -0.759,3.731 -6.428,5.73 -7.945,1.631 -2.717,-7.331 9.494,-9.236 7.945,-1.631 z"
   id="path308"
   inkscape:label="path308" />
		
	</g></g>
	
	<g
   id="g200"
   style="display:inline"
   inkscape:label="girl">
		<g
   id="g218"
   inkscape:label="legsandboots"
   style="display:inline"
   transform="matrix(1.1244984,0,0,1.1244984,284.26686,-129.78969)"><path
     style="clip-rule:evenodd;fill:#3a2b21;fill-rule:evenodd;stroke-width:0.952045"
     d="m -10.50847,445.00888 -4.6529,-3.5477 c 0,0 -0.52809,-14.48915 -3.35354,-20.05161 -2.82843,-5.56186 11.3018001,-5.0527 14.9178901,-4.41352 3.61013001,0.63979 6.59073,3.51732 6.59073,3.51732 0,0 -2.04374999,6.20226 -2.43310999,20.68837 0,0 -6.19838001,3.61332 -11.06907011,3.80714 z"
     id="path369" /><path
     style="clip-rule:evenodd;fill:#f29a33;fill-rule:evenodd;stroke-width:0.952045"
     d="m -15.16137,438.65959 c 0,0 6.9338401,1.27897 15.31024011,-0.21326 0,0 1.17701999,-0.32141 1.17701999,0.71999 0,1.03898 0,3.58659 0,5.73563 0,2.14843 0,3.47965 0,4.60491 0,1.12586 -10.61408,4.74161 -26.3614101,2.96806 0,0 -3.51615,-0.44293 -3.0149,-2.25171 0.49825,-1.80697 4.268,-5.01443 12.56235,-5.52602 0,0 0.73545,-0.23635 0.73545,-1.42054 10e-4,-1.18236 -3.37741,-4.44511 -0.40875,-4.61706 z"
     id="path370" /><path
     style="clip-rule:evenodd;fill:#edd1b3;fill-rule:evenodd;stroke-width:0.952045"
     d="m 1.3258901,448.03285 v 1.47401 c 0,1.12586 -10.61408,4.74161 -26.3614101,2.96806 0,0 -3.51615,-0.44293 -3.0149,-2.25171 0,0 2.04822,1.04079 10.45147,0.97578 8.3987701,-0.0638 17.20779011,-1.91876 18.9248401,-3.16614 z"
     id="path371" /><path
     style="clip-rule:evenodd;fill:#3a2b21;fill-rule:evenodd;stroke-width:0.952045"
     d="m 19.95983,445.00888 4.648414,-3.5477 c 0,0 0.528094,-14.48915 3.353543,-20.05161 2.828432,-5.56186 -11.301797,-5.0527 -14.916397,-4.41352 -3.6071499,0.63979 -6.5922199,3.51732 -6.5922199,3.51732 0,0 2.04375,6.20226 2.43758,20.68837 0,0 6.1983899,3.61332 11.0690799,3.80714 z"
     id="path372" /><path
     style="clip-rule:evenodd;fill:#f29a33;fill-rule:evenodd;stroke-width:0.952045"
     d="m 24.608244,438.65959 c 0,0 -6.933834,1.27897 -15.3102339,-0.21326 0,0 -1.17702,-0.32141 -1.17702,0.71999 0,1.03898 0,3.58659 0,5.73563 0,2.14843 0,3.47965 0,4.60491 0,1.12586 10.6185599,4.74161 26.3628989,2.96806 0,0 3.516148,-0.44293 3.013415,-2.25171 -0.498258,-1.80697 -4.26801,-5.01443 -12.560866,-5.52602 0,0 -0.736944,-0.23635 -0.736944,-1.42054 0,-1.18236 3.377411,-4.44511 0.40875,-4.61706 z"
     id="path373" /><path
     style="clip-rule:evenodd;fill:#edd1b3;fill-rule:evenodd;stroke-width:0.952045"
     d="m 8.1224801,448.03285 v 1.47401 c 0,1.12586 10.6185599,4.74161 26.3629009,2.96806 0,0 3.516147,-0.44293 3.013414,-2.25171 0,0 -2.043751,1.04079 -10.447,0.97578 -8.404745,-0.0638 -17.2077849,-1.91876 -18.9293149,-3.16614 z"
     id="path374" /></g><g
   id="g219"
   inkscape:label="upperbody"
   style="display:inline"
   transform="matrix(1.1244984,0,0,1.1244984,284.26686,-129.78969)"><g
     id="g220"
     inkscape:label="HEAD"
     style="display:inline"
     transform="matrix(0.88928539,0,0,0.88928539,-252.79437,99.412949)"><path
       style="display:inline;fill:#a37140"
       d="m 334.828,235.814 c 0,25.553 -20.716,34.269 -46.27,34.269 -25.553,0 -46.269,-8.716 -46.269,-34.269 0,-25.554 20.716,-46.27 46.269,-46.27 25.554,10e-4 46.27,20.717 46.27,46.27 z"
       id="path139"
       inkscape:label="hair" /><g
       id="g143"
       style="display:inline"
       inkscape:label="hair">
			<g
   id="g142">
				<path
   style="fill:#a37140"
   d="m 242.889,237.148 c 0,10.213 -2.438,19.914 -8.583,28.694 13.714,-6.587 22.571,-16.986 22.571,-28.694 z"
   id="path140" />
				<path
   style="fill:#a37140"
   d="m 248.893,248.075 c 0,10.214 -3.439,19.915 -9.583,28.695 13.714,-6.588 22.57,-16.987 22.57,-28.695 z"
   id="path141" />
				<path
   style="fill:#a37140"
   d="m 257.839,252.238 c 0,10.213 -3.439,19.915 -9.584,28.695 13.715,-6.588 22.571,-16.987 22.571,-28.695 z"
   id="path142" />
			</g>
		</g><g
       id="g146"
       style="display:inline"
       inkscape:label="hair">
			<g
   id="g145">
				<path
   style="fill:#a37140"
   d="m 334.555,237.309 c 0,10.213 2.438,19.914 8.583,28.694 -13.714,-6.587 -22.571,-16.986 -22.571,-28.694 z"
   id="path143" />
				<path
   style="fill:#a37140"
   d="m 328.551,248.236 c 0,10.214 3.439,19.915 9.583,28.695 -13.714,-6.588 -22.57,-16.987 -22.57,-28.695 z"
   id="path144" />
				<path
   style="fill:#a37140"
   d="m 319.604,252.399 c 0,10.213 3.439,19.915 9.584,28.695 -13.715,-6.588 -22.571,-16.987 -22.571,-28.695 z"
   id="path145" />
			</g>
		</g><g
       id="g188"
       style="display:inline"
       inkscape:label="face">
			<g
   id="g178">
				<path
   style="fill:#ffd097"
   d="m 252.803,254.292 c -4.24,0 -7.672,-3.436 -7.672,-7.672 v 0 c 0,-4.235 3.432,-7.67 7.672,-7.67 h 71.87 c 4.235,0 7.671,3.435 7.671,7.67 v 0 c 0,4.236 -3.436,7.672 -7.671,7.672 z"
   id="path176" />
				<g
   id="g177">
					<path
   style="fill:#f5be7d"
   d="m 252.803,242.417 c -2.318,0 -4.205,1.886 -4.205,4.203 0,2.318 1.887,4.205 4.205,4.205 h 71.87 c 2.317,0 4.204,-1.887 4.204,-4.205 0,-2.317 -1.887,-4.203 -4.204,-4.203 z"
   id="path177" />
				</g>
			</g>
			<path
   style="fill:#ffd097"
   d="m 286.745,277.516 c -19.25,0 -34.852,-15.607 -34.852,-34.857 v 0 c 0,-19.246 15.602,-34.853 34.852,-34.853 h 3.155 c 19.248,0 34.855,15.606 34.855,34.853 v 0 c 0,19.25 -15.607,34.857 -34.854,34.857 z"
   id="path178" />
			<path
   style="fill:#e77544"
   d="m 285.199,251.096 c 0,1.956 1.582,3.542 3.539,3.542 1.955,0 3.538,-1.586 3.538,-3.542 z"
   id="path179" />
			<path
   style="fill:#171e21"
   d="m 317.597,244.542 c 0,0.726 -0.587,1.313 -1.313,1.313 h -5.411 c -0.726,0 -1.314,-0.588 -1.314,-1.313 v 0 c 0,-0.726 0.588,-1.314 1.314,-1.314 h 5.411 c 0.726,0.001 1.313,0.588 1.313,1.314 z"
   id="path180" />
			<path
   style="fill:#171e21"
   d="m 265.551,244.542 c 0,0.726 -0.588,1.313 -1.313,1.313 h -5.412 c -0.725,0 -1.313,-0.588 -1.313,-1.313 v 0 c 0,-0.726 0.588,-1.314 1.313,-1.314 h 5.412 c 0.725,0.001 1.313,0.588 1.313,1.314 z"
   id="path181" />
			<path
   style="fill:#171e21"
   d="m 313.322,244.542 c 0,2.974 -2.408,5.384 -5.381,5.384 -2.975,0 -5.385,-2.41 -5.385,-5.384 0,-2.973 2.41,-5.384 5.385,-5.384 2.973,0 5.381,2.411 5.381,5.384 z"
   id="path182" />
			<path
   style="fill:#f7b27b"
   d="m 319.85,255.626 c 0,2.973 -2.408,5.383 -5.381,5.383 -2.975,0 -5.385,-2.41 -5.385,-5.383 0,-2.973 2.41,-5.385 5.385,-5.385 2.972,0 5.381,2.412 5.381,5.385 z"
   id="path183" />
			<path
   style="fill:#ffffff"
   d="m 332.219,258.044 c 0,2.973 -2.409,5.383 -5.382,5.383 -2.975,0 -5.384,-2.41 -5.384,-5.383 0,-2.973 2.409,-5.385 5.384,-5.385 2.973,0 5.382,2.412 5.382,5.385 z"
   id="path184" />
			<path
   style="fill:#ffffff"
   d="m 280.783,262.746 c 0,4.393 3.561,7.955 7.957,7.955 4.394,0 7.953,-3.562 7.953,-7.955 z"
   id="path185" />
			<path
   style="fill:#ffffff"
   d="m 255.188,258.044 c 0,2.973 -2.408,5.383 -5.381,5.383 -2.975,0 -5.385,-2.41 -5.385,-5.383 0,-2.973 2.41,-5.385 5.385,-5.385 2.972,0 5.381,2.412 5.381,5.385 z"
   id="path186" />
			<path
   style="fill:#f7b27b"
   d="m 267.692,255.626 c 0,2.973 -2.409,5.383 -5.382,5.383 -2.975,0 -5.384,-2.41 -5.384,-5.383 0,-2.973 2.409,-5.385 5.384,-5.385 2.973,0 5.382,2.412 5.382,5.385 z"
   id="path187" />
			<circle
   style="fill:#171e21"
   cx="266.659"
   cy="244.54201"
   r="5.3839998"
   id="circle187" />
			<path
   style="fill:#ffffff"
   d="m 307.479,242.467 c 0,0.893 -0.723,1.615 -1.614,1.615 -0.893,0 -1.615,-0.723 -1.615,-1.615 0,-0.892 0.723,-1.615 1.615,-1.615 0.892,0 1.614,0.723 1.614,1.615 z"
   id="path188" />
			<circle
   style="fill:#ffffff"
   cx="264.58401"
   cy="242.467"
   r="1.615"
   id="circle188" />
		</g><g
       id="g197"
       style="display:inline"
       inkscape:label="eyebrows">
			<g
   id="g195">
				<path
   style="fill:#ba8556"
   d="m 316.292,235.38 c -0.248,0 -0.497,-0.088 -0.695,-0.269 -1.813,-1.641 -4.7,-2.619 -7.724,-2.619 -0.573,0 -1.037,-0.464 -1.037,-1.038 0,-0.573 0.464,-1.037 1.037,-1.037 3.576,0 6.898,1.15 9.115,3.156 0.426,0.384 0.459,1.041 0.074,1.465 -0.205,0.227 -0.487,0.342 -0.77,0.342 z"
   id="path194" />
			</g>
			<g
   id="g196">
				<path
   style="fill:#c9771d"
   d="m 261.183,235.38 c 0.248,0 0.497,-0.088 0.695,-0.269 1.814,-1.641 4.7,-2.619 7.724,-2.619 0.573,0 1.037,-0.464 1.037,-1.038 0,-0.573 -0.464,-1.037 -1.037,-1.037 -3.576,0 -6.898,1.15 -9.115,3.156 -0.426,0.384 -0.459,1.041 -0.074,1.465 0.204,0.227 0.486,0.342 0.77,0.342 z"
   id="path195" />
			</g>
		</g><g
       id="g199"
       style="display:inline"
       inkscape:label="hair">
			<path
   style="fill:#a37140"
   d="m 276.816,201.308 -25.25,17.222 -3.967,20.406 c 0,0 37.368,2.188 68.236,-27.268 z"
   id="path197" />
			<path
   style="fill:#a37140"
   d="m 290.329,237.455 c 0,0 6.587,-6.215 8.265,-21.779 1.679,-15.563 14.926,-1.816 14.926,-1.816 0,0 2.144,20.213 -23.191,23.595 z"
   id="path198" />
			<path
   style="fill:#a37140"
   d="m 333.573,240.71 c 0,0 -11.023,-5.853 -10.356,-21.492 0.666,-15.641 -14.487,-4.028 -14.487,-4.028 0,0 0.298,18.389 24.843,25.52 z"
   id="path199" />
		</g><path
       style="display:inline;fill:#b57c48"
       d="m 262.841,207.632 c -7.059,7.059 -10.986,16.184 -11.903,25.89 9.708,-0.915 18.833,-4.843 25.892,-11.903 7.06,-7.06 10.987,-16.185 11.902,-25.891 -9.707,0.916 -18.832,4.842 -25.891,11.904 z"
       id="path210"
       inkscape:label="hair" /><path
       style="display:inline;fill:#b57c48"
       d="m 309.876,210.977 c -1.352,-8.593 -8.414,-14.618 -14.934,-15.244 2.912,5.942 4.226,11.353 5.192,16.888 0.9,5.545 1.434,11.087 0.627,17.653 5.955,-2.727 10.655,-10.733 9.115,-19.297 z"
       id="path211"
       inkscape:label="hair" /></g><path
     style="clip-rule:evenodd;display:inline;fill:#0077bd;fill-rule:evenodd;stroke-width:1.43466"
     d="m -20.89088,346.89266 c -19.437101,-1.28657 -45.096041,29.34612 -15.50545,43.24836 0,0 1.813474,2.12335 3.233784,0.11811 1.41867,-2.00524 5.227458,-3.4363 3.476235,-4.29066 -9.699712,-4.73669 -7.412801,-21.2146 5.676321,-22.17324 10.412324,-0.75636 12.944964,-10.7788 10.102707,-14.37089 z"
     id="path367" /><path
     style="clip-rule:evenodd;display:inline;fill:#0077bd;fill-rule:evenodd;stroke-width:1.43466"
     d="m 28.081115,344.91003 c 30.819233,0.82547 49.407753,31.32875 19.817162,45.23099 0,0 -1.813474,2.12335 -3.238698,0.11811 -1.418671,-2.00524 -5.571478,-3.768 -3.81534,-4.62236 9.698073,-4.73418 8.967442,-21.14926 -4.298606,-22.36798 -10.391027,-0.95488 -13.981935,-10.25236 -11.139679,-13.84445 z"
     id="path368" /><path
     style="clip-rule:evenodd;fill:#0077bd;fill-rule:evenodd;stroke-width:1.43466"
     d="m 29.775002,339.72983 c 0.686401,1.70119 -2.452368,2.53796 -1.846238,4.10471 0.471798,1.21244 4.71962,3.18879 5.147187,4.33212 8.069714,21.58649 8.338377,31.27472 8.338377,53.71809 0,8.37527 3.735069,10.13802 -0.575004,13.22378 -10.546655,7.54855 -61.392737,7.54855 -71.944306,0 -4.311711,-3.08576 -0.575004,-4.84851 -0.575004,-13.22378 0,-23.22486 -1.092672,-33.85289 11.629497,-55.62533 1.077928,-1.84567 -0.856772,-4.37986 0.01474,-6.52959 0,0 12.4780793,-1.14334 24.9070123,-1.43609 12.4240177,0.29275 24.9037347,1.43609 24.9037347,1.43609 z"
     id="path379" /><path
     style="clip-rule:evenodd;fill:#f29a33;fill-rule:evenodd;stroke-width:1.43466"
     d="m 6.4963503,420.76492 c -1.086119,0.006 -2.172238,0.006 -3.259995,0 v -76.14135 c 0,-0.69229 0.73227,-1.25013 1.634912,-1.25013 0.897727,0 1.625083,0.55784 1.625083,1.25013 z"
     id="path380" /><path
     style="clip-rule:evenodd;fill:#fff5ea;fill-rule:evenodd;stroke-width:1.43466"
     d="m 40.839324,415.10979 c -10.543378,7.54855 -60.706336,8.87155 -73.83969,-0.7928 -2.491684,-1.83563 -0.781416,-10.31769 2.64895,-9.42941 29.57421034,7.64907 53.480289,4.14367 65.199886,1.33934 8.479262,-2.02785 9.996224,-0.093 9.645652,4.72162 -0.157266,2.22385 -3.164979,3.81322 -3.654798,4.16125 z"
     id="path381" /><path
     style="clip-rule:evenodd;fill:#fff5ea;fill-rule:evenodd;stroke-width:1.43466"
     d="m 28.100774,332.76049 c 0.561898,0.5679 1.086118,2.34949 1.377716,3.63104 0.845305,3.76045 -0.340743,4.02179 1.095948,6.9417 1.441605,2.9174 -6.347979,5.90264 -22.5955277,6.41903 -16.250826,0.52016 -28.1801123,-1.49388 -29.2809753,-3.76045 -0.03113,-0.0691 -0.69623,-7.97699 0.727356,-11.69598 1.063184,-2.76161 3.605652,-1.49388 5.761508,-0.66088 23.4031554,9.01605 40.892451,-2.91363 42.913975,-0.87446 z"
     id="path382" /><path
     style="clip-rule:evenodd;fill:#edd1b3;fill-rule:evenodd;stroke-width:1.43466"
     d="m 22.442472,348.30487 c -2.922528,0.58549 -6.600259,1.04031 -11.020091,1.29537 0.242452,-0.3317 0.443949,-0.67596 0.596301,-1.03027 1.092671,-2.57188 -0.106483,-9.77994 -1.759414,-11.995 0.969807,-0.13067 1.913403,-0.2827 2.816045,-0.44729 5.594412,0.55157 8.320357,7.55609 9.367159,12.17719 z"
     id="path383" /><path
     style="clip-rule:evenodd;fill:#fff5ea;fill-rule:evenodd;stroke-width:1.43466"
     d="m 11.220884,352.8242 c -1.4284996,0 -2.5866986,0.88829 -2.5866986,1.98388 0,1.09434 1.158199,1.98263 2.5866986,1.98263 1.4285,0 2.586699,-0.88829 2.586699,-1.98263 0,-1.09559 -1.158199,-1.98388 -2.586699,-1.98388 z"
     id="path384" /><ellipse
     style="clip-rule:evenodd;fill:#fff5ea;fill-rule:evenodd;stroke-width:1.43466"
     cx="11.220885"
     cy="366.44128"
     id="circle384"
     rx="2.586699"
     ry="1.9838815" /><path
     style="clip-rule:evenodd;fill:#fff5ea;fill-rule:evenodd;stroke-width:1.43466"
     d="m 11.220884,376.09555 c -1.4284996,0 -2.5866986,0.88828 -2.5866986,1.98262 0,1.0956 1.158199,1.98388 2.5866986,1.98388 1.4285,0 2.586699,-0.88828 2.586699,-1.98388 0,-1.09434 -1.158199,-1.98262 -2.586699,-1.98262 z"
     id="path385" /><path
     style="clip-rule:evenodd;fill:#fff5ea;fill-rule:evenodd;stroke-width:1.43466"
     d="m 11.220884,387.73122 c -1.4284996,0 -2.5866986,0.88828 -2.5866986,1.98262 0,1.0956 1.158199,1.98388 2.5866986,1.98388 1.4285,0 2.586699,-0.88828 2.586699,-1.98388 0,-1.09434 -1.158199,-1.98262 -2.586699,-1.98262 z"
     id="path386" /><ellipse
     style="clip-rule:evenodd;fill:#fff5ea;fill-rule:evenodd;stroke-width:1.43466"
     cx="11.220885"
     cy="401.3483"
     id="circle386"
     rx="2.586699"
     ry="1.9838815" /><path
     style="clip-rule:evenodd;fill:#87491f;fill-rule:evenodd;stroke-width:1.43466"
     d="m -29.946783,386.38811 c 0,0 5.658301,1.27526 8.330186,-0.20605 2.671885,-1.48509 3.479512,2.76788 -0.76831,3.62224 1.041888,-2.91237 0.653637,10.71724 -5.761508,7.87899 -6.767355,-2.99529 -8.249915,-7.54227 -8.249915,-7.54227 z"
     id="path387" /><path
     style="clip-rule:evenodd;fill:#fff5ea;fill-rule:evenodd;stroke-width:1.43466"
     d="m -28.477329,387.7174 c -1.548087,1.74013 -5.954813,4.45022 -6.829606,4.92138 -0.871516,0.46864 -2.663694,-0.41587 -2.83898,-1.49011 -0.314532,-1.9085 2.128007,-2.46635 6.313577,-6.42531 2.455644,-2.32689 4.908012,1.25139 3.355009,2.99404 z"
     id="path388" /><path
     style="clip-rule:evenodd;fill:#fff5ea;fill-rule:evenodd;stroke-width:1.43466"
     d="m -22.078566,389.82064 c 0,0 -2.991331,6.69167 -8.04678,7.25957 -1.97074,0.97498 -0.507838,4.04315 2.963482,3.17497 1.562832,-0.38949 10.184616,-4.4829 9.483471,-9.28869 -0.0016,0.003 -1.23847,-1.75396 -4.400173,-1.14585 z"
     id="path389" /><path
     style="clip-rule:evenodd;fill:#87491f;fill-rule:evenodd;stroke-width:1.43466"
     d="m 41.44873,386.38811 c 0,0 -5.656663,1.27526 -8.333463,-0.20605 -2.671884,-1.48509 -3.476235,2.76788 0.773225,3.62224 0,0 -0.440672,-0.65082 -1.603786,2.34573 -0.643808,1.64968 2.360629,3.2202 3.853018,4.56331 1.207345,1.08052 0.476713,2.31432 3.507361,0.96995 6.77227,-2.99529 8.253192,-7.54227 8.253192,-7.54227 z"
     id="path390" /><path
     style="clip-rule:evenodd;fill:#fff5ea;fill-rule:evenodd;stroke-width:1.43466"
     d="m 39.204413,386.98742 c 1.548087,1.74391 6.7264,5.1802 7.602831,5.65136 0.874792,0.46864 2.662055,-0.41587 2.842256,-1.49011 0.312894,-1.9085 -1.35642,-2.13465 -5.54199,-6.09613 -2.45073,-2.32186 -6.4561,0.19977 -4.903097,1.93488 z"
     id="path391" /><path
     style="clip-rule:evenodd;fill:#fff5ea;fill-rule:evenodd;stroke-width:1.43466"
     d="m 34.012995,390.58956 c 1.113967,1.8595 2.716115,5.18398 6.749334,6.35873 2.69482,1.42603 -0.552069,3.24407 -2.447453,2.97896 -2.491684,-0.34803 -8.60704,-4.42635 -9.069009,-8.80622 -0.22607,-2.14219 3.730154,-2.26658 4.767128,-0.53147 z"
     id="path392" /><path
     style="clip-rule:evenodd;fill:#fff5ea;fill-rule:evenodd;stroke-width:1.43466"
     d="m 10.106916,336.60386 c 0,0 2.445815,0.88075 3.278015,3.65995 1.225364,4.11602 3.636777,20.68815 4.732724,29.38004 0.894451,7.11885 6.542924,6.30846 10.925077,5.16889 3.633501,-0.9398 6.23822,-1.15339 6.021979,-5.84987 -0.52422,-11.64824 -5.872904,-35.34551 -12.396169,-36.50644 -5.674684,-1.01141 -12.102933,1.26145 -12.561626,4.14743 z"
     id="path393" /><path
     style="clip-rule:evenodd;fill:#87491f;fill-rule:evenodd;stroke-width:1.43466"
     d="m -37.821553,296.16233 c -1.113968,5.62749 0.389888,11.0728 0.389888,14.90864 0,5.31715 2.105072,33.43324 11.39196,33.0337 7.642148,-0.33044 6.09406,-6.81983 3.86121,-20.16423 -2.226298,-13.3444 -0.866602,-24.80543 -0.08191,-25.85956 4.957157,-6.61252 43.359562,-9.23717 53.075655,0 2.927442,2.78924 2.147665,12.51516 -0.08682,25.85956 -2.226297,13.3444 -5.607517,19.58879 1.967464,20.42556 13.017043,1.43986 14.642125,-49.02034 10.448364,-57.01617 -3.89725,-7.43924 -12.137336,-14.32315 -24.238631,-18.01576 -19.63859766,-5.99562 -51.635689,1.08178 -56.727177,26.82826 z"
     id="path394" /><path
     style="clip-rule:evenodd;fill:#f29a33;fill-rule:evenodd;stroke-width:1.43466"
     d="m 4.2798813,269.74366 c 23.9109927,0 43.2907577,17.23301 43.2907577,38.4853 l -0.0098,0.66087 h -2.694848 l 0.0098,-0.66087 c 0,-16.79829 -18.172421,-30.41659 -40.5959387,-30.41659 -22.4267953,0 -40.6024923,13.6183 -40.6024923,30.41659 l 0.01474,0.66087 h -2.694819 l -0.01474,-0.66087 c 0,-21.25229 19.38468,-38.4853 43.2973123,-38.4853 z"
     id="path395" /><path
     style="clip-rule:evenodd;fill:#f29a33;fill-rule:evenodd;stroke-width:1.43466"
     d="m -42.089033,302.43311 c 0.91247,0 1.792177,0.14448 2.614548,0.40708 v 16.22661 c -0.822371,0.26259 -1.702078,0.40708 -2.614548,0.40708 -4.727811,0 -8.557895,-3.81573 -8.557895,-8.52101 0,-4.70403 3.830084,-8.51976 8.557895,-8.51976 z"
     id="path396" /><path
     style="clip-rule:evenodd;fill:#fff5ea;fill-rule:evenodd;stroke-width:1.43466"
     d="m -33.40336,319.62088 c 0,1.09183 -1.168028,1.98388 -2.586699,1.98388 h -3.278014 c -3.379583,-0.25128 -2.586699,-2.90986 -2.632569,-4.96284 -0.04914,-2.19999 -0.538964,-14.51538 0.278492,-15.68259 0.966531,-1.36321 3.130578,-1.08806 4.926032,-1.06795 4.110214,0.0477 3.220678,2.59575 3.174808,4.90379 -0.09338,4.97038 0.09993,9.87041 0.11795,14.82571 z"
     id="path397" /><path
     style="clip-rule:evenodd;fill:#f29a33;fill-rule:evenodd;stroke-width:1.43466"
     d="m 50.645518,302.43311 c -0.912471,0 -1.792178,0.14448 -2.619463,0.40708 v 16.22661 c 0.827285,0.26259 1.706992,0.40708 2.619463,0.40708 4.727811,0 8.557895,-3.81573 8.557895,-8.52101 0,-4.70403 -3.830084,-8.51976 -8.557895,-8.51976 z"
     id="path398" /><path
     style="clip-rule:evenodd;fill:#fff5ea;fill-rule:evenodd;stroke-width:1.43466"
     d="m 41.961483,319.62088 c 0,1.09183 1.168028,1.98388 2.586699,1.98388 h 3.278015 c 3.38122,-0.25128 2.586699,-2.90986 2.63093,-4.96284 0.04423,-2.19999 0.538963,-14.51538 -0.278492,-15.68259 -0.969808,-1.36321 -3.133854,-1.08806 -4.930947,-1.06795 -4.103661,0.0477 -3.215763,2.59575 -3.171532,4.90379 0.09338,4.97038 -0.09665,9.87041 -0.114673,14.82571 z"
     id="path399" /><path
     style="clip-rule:evenodd;fill:#005d9c;fill-rule:evenodd;stroke-width:1.43466"
     d="m 59.834115,369.11364 c 0.864964,9.99102 -9.686606,16.44146 -13.094037,18.25196 1.186048,0.97749 1.993675,1.57806 2.460558,2.13465 16.447409,-8.40919 16.627609,-22.24736 7.714228,-32.28236 1.28434,3.01037 2.491684,7.00452 2.919251,11.89575 z"
     id="path417" /><path
     style="clip-rule:evenodd;fill:#005d9c;fill-rule:evenodd;stroke-width:1.43466"
     d="m -35.326593,387.66965 c -2.603081,-1.14334 -5.764784,-3.11968 -8.646357,-6.52205 -5.029237,-5.94411 -4.056153,-14.685 -1.051716,-21.42065 -7.009807,9.47715 -7.822349,22.01619 7.417715,29.81602 0.475075,-0.53021 1.258129,-1.08806 2.280358,-1.87332 z"
     id="path418" /></g>
		
		
		
		
		
		
		
		
		
		
		
		
		
		
		
		
		
	</g>
</g>







</svg>
