<?xml version="1.0" encoding="utf-8"?>
<!-- Generator: Adobe Illustrator 27.5.0, SVG Export Plug-In . SVG Version: 6.00 Build 0)  -->
<svg version="1.1" id="Layer_1" xmlns="http://www.w3.org/2000/svg" xmlns:xlink="http://www.w3.org/1999/xlink" x="0px" y="0px"
	 viewBox="0 0 450 400" style="enable-background:new 0 0 450 400;" xml:space="preserve">
<rect style="fill:#BBCFD8;" width="450" height="400"/>
<rect y="343.966" style="fill:#7B9AAA;" width="450" height="56.034"/>
<ellipse style="fill:#698793;" cx="222.591" cy="377.064" rx="125.973" ry="10.581"/>
<g>
	<g>
		<g>
			<g>
				<path style="fill:#698793;" d="M164.224,92.773c0,13.223-10.72,23.942-23.943,23.942c-13.223,0-23.943-10.72-23.943-23.942
					c0-13.224,10.72-23.943,23.943-23.943C153.504,68.83,164.224,79.55,164.224,92.773z"/>
				<path style="fill:#698793;" d="M47.886,92.773c0,13.223-10.72,23.942-23.943,23.942C10.72,116.716,0,105.996,0,92.773
					C0,79.55,10.72,68.83,23.943,68.83C37.166,68.83,47.886,79.55,47.886,92.773z"/>
				<path style="fill:#698793;" d="M450,102.731c0,13.223-10.719,23.942-23.943,23.942c-13.223,0-23.941-10.719-23.941-23.942
					c0-13.224,10.719-23.943,23.941-23.943C439.281,78.788,450,89.508,450,102.731z"/>
				<path style="fill:#698793;" d="M417.004,96.922c0,19.834-16.08,35.914-35.914,35.914c-19.836,0-35.914-16.08-35.914-35.914
					c0-19.835,16.078-35.915,35.914-35.915C400.924,61.007,417.004,77.087,417.004,96.922z"/>
				<path style="fill:#698793;" d="M289.346,92.773c0,19.834-16.078,35.914-35.914,35.914c-19.834,0-35.913-16.08-35.913-35.914
					c0-19.835,16.08-35.915,35.913-35.915C273.268,56.858,289.346,72.938,289.346,92.773z"/>
				<path style="fill:#698793;" d="M220.334,81.605c0,19.834-16.079,35.914-35.914,35.914s-35.914-16.08-35.914-35.914
					c0-19.835,16.079-35.915,35.914-35.915S220.334,61.771,220.334,81.605z"/>
				<path style="fill:#698793;" d="M99.781,85.641c0,19.834-16.079,35.914-35.914,35.914c-19.835,0-35.914-16.08-35.914-35.914
					c0-19.835,16.079-35.915,35.914-35.915C83.702,49.726,99.781,65.806,99.781,85.641z"/>
				<path style="fill:#698793;" d="M136.457,110.731c0,9.917-8.039,17.958-17.957,17.958s-17.957-8.041-17.957-17.958
					c0-9.918,8.04-17.958,17.957-17.958S136.457,100.813,136.457,110.731z"/>
				<path style="fill:#698793;" d="M306.902,103.599c0,9.916-8.039,17.956-17.957,17.956c-9.916,0-17.957-8.04-17.957-17.956
					c0-9.919,8.041-17.959,17.957-17.959C298.863,85.64,306.902,93.68,306.902,103.599z"/>
				<path style="fill:#698793;" d="M359.516,96.923c0,9.917-8.039,17.957-17.957,17.957s-17.957-8.04-17.957-17.957
					c0-9.918,8.039-17.958,17.957-17.958S359.516,87.005,359.516,96.923z"/>
				<path style="fill:#698793;" d="M111.086,115.135c0,12.81-10.385,23.197-23.198,23.197c-12.811,0-23.197-10.387-23.197-23.197
					c0-12.813,10.387-23.199,23.197-23.199C100.701,91.936,111.086,102.322,111.086,115.135z"/>
				<path style="fill:#698793;" d="M239.006,116.531c0,13.224-10.721,23.943-23.943,23.943c-13.224,0-23.943-10.719-23.943-23.943
					c0-13.223,10.719-23.942,23.943-23.942C228.285,92.589,239.006,103.309,239.006,116.531z"/>
				<path style="fill:#698793;" d="M338.912,81.605c0,13.223-10.721,23.942-23.943,23.942c-13.223,0-23.943-10.72-23.943-23.942
					c0-13.224,10.721-23.943,23.943-23.943C328.191,57.662,338.912,68.382,338.912,81.605z"/>
			</g>
			<polygon style="fill:#698793;" points="450,28.363 0,28.363 0,92.773 99.371,104.929 155.689,96.218 450,102.731 			"/>
		</g>
	</g>
	<g>
		<g>
			<path style="fill:#7B9AAA;" d="M173.064,47.232c0,16.658-13.503,30.162-30.161,30.162c-16.66,0-30.163-13.504-30.163-30.162
				s13.503-30.163,30.163-30.163C159.561,17.069,173.064,30.574,173.064,47.232z"/>
			<path style="fill:#7B9AAA;" d="M60.326,47.232c0,16.658-13.506,30.162-30.163,30.162S0,63.891,0,47.232
				s13.506-30.163,30.163-30.163S60.326,30.574,60.326,47.232z"/>
			<path style="fill:#7B9AAA;" d="M450,56.883c0,16.657-13.504,30.162-30.162,30.162s-30.162-13.505-30.162-30.162
				c0-16.659,13.504-30.163,30.162-30.163S450,40.224,450,56.883z"/>
			
				<ellipse transform="matrix(0.7071 -0.7071 0.7071 0.7071 68.336 283.0421)" style="fill:#7B9AAA;" cx="375.83" cy="59.032" rx="45.244" ry="45.244"/>
			<path style="fill:#7B9AAA;" d="M297.797,47.232c0,24.986-20.256,45.244-45.244,45.244c-24.988,0-45.243-20.258-45.243-45.244
				c0-24.987,20.255-45.244,45.243-45.244C277.541,1.988,297.797,22.245,297.797,47.232z"/>
			<path style="fill:#7B9AAA;" d="M238.172,51.253c0,24.986-20.256,45.243-45.244,45.243c-24.987,0-45.245-20.257-45.245-45.243
				c0-24.987,20.258-45.244,45.245-45.244C217.915,6.009,238.172,26.266,238.172,51.253z"/>
			<path style="fill:#7B9AAA;" d="M114.097,56.883c0,24.986-20.257,45.243-45.244,45.243c-24.988,0-45.243-20.257-45.243-45.243
				c0-24.988,20.255-45.245,45.243-45.245C93.84,11.638,114.097,31.895,114.097,56.883z"/>
			<path style="fill:#7B9AAA;" d="M136.719,42.013c0,12.493-10.127,22.622-22.622,22.622c-12.492,0-22.621-10.129-22.621-22.622
				c0-12.495,10.129-22.623,22.621-22.623C126.592,19.39,136.719,29.518,136.719,42.013z"/>
			<path style="fill:#7B9AAA;" d="M309.59,36.411c0,12.493-10.127,22.621-22.621,22.621c-12.494,0-22.623-10.128-22.623-22.621
				c0-12.495,10.129-22.623,22.623-22.623C299.463,13.788,309.59,23.916,309.59,36.411z"/>
			<path style="fill:#7B9AAA;" d="M368.928,31.282c0,12.493-10.127,22.622-22.621,22.622c-12.494,0-22.623-10.129-22.623-22.622
				c0-12.495,10.129-22.623,22.623-22.623C358.801,8.659,368.928,18.787,368.928,31.282z"/>
			<path style="fill:#7B9AAA;" d="M121.354,68.902c0,16.139-13.082,29.224-29.224,29.224c-16.14,0-29.225-13.085-29.225-29.224
				c0-16.141,13.085-29.225,29.225-29.225C108.272,39.677,121.354,52.762,121.354,68.902z"/>
			<path style="fill:#7B9AAA;" d="M245.533,70.256c0,16.658-13.504,30.162-30.163,30.162s-30.163-13.504-30.163-30.162
				s13.504-30.163,30.163-30.163S245.533,53.598,245.533,70.256z"/>
			<path style="fill:#7B9AAA;" d="M342.348,47.232c0,16.658-13.504,30.162-30.162,30.162c-16.658,0-30.162-13.504-30.162-30.162
				c0-16.659,13.504-30.163,30.162-30.163C328.844,17.069,342.348,30.573,342.348,47.232z"/>
			<polygon style="fill:#7B9AAA;" points="0,0 0,47.232 450,56.883 450,0 			"/>
		</g>
	</g>
	<g>
		<g>
			<g>
				<g>
					<path style="fill:#97B1C2;" d="M283.93,0c-4.359,5.229-6.994,11.947-6.994,19.289c0,16.658,13.504,30.163,30.162,30.163
						c16.66,0,30.162-13.505,30.162-30.163c0-7.342-2.633-14.06-6.994-19.289H283.93z"/>
					<path style="fill:#97B1C2;" d="M396.67,0c-4.361,5.229-6.996,11.947-6.996,19.289c0,16.658,13.506,30.163,30.164,30.163
						c16.656,0,30.162-13.505,30.162-30.163c0-7.342-2.635-14.06-6.994-19.289H396.67z"/>
					<path style="fill:#97B1C2;" d="M1.587,0C0.564,3.027,0,6.266,0,9.639c0,16.659,13.503,30.163,30.162,30.163
						S60.325,26.298,60.325,9.639c0-3.373-0.564-6.611-1.587-9.639H1.587z"/>
					<path style="fill:#97B1C2;" d="M29.556,0c-0.406,2.438-0.629,4.937-0.629,7.489c0,24.987,20.256,45.244,45.244,45.244
						s45.244-20.257,45.244-45.244c0-2.553-0.223-5.052-0.629-7.489H29.556z"/>
					<path style="fill:#97B1C2;" d="M156.541,0c-2.768,5.854-4.338,12.384-4.338,19.289c0,24.987,20.256,45.244,45.244,45.244
						s45.244-20.257,45.244-45.244c0-6.905-1.572-13.435-4.34-19.289H156.541z"/>
					<path style="fill:#97B1C2;" d="M214.492,0c-1.714,4.772-2.663,9.907-2.663,15.269c0,24.987,20.255,45.244,45.243,45.244
						c24.988,0,45.246-20.257,45.246-45.244c0-5.361-0.949-10.497-2.662-15.269H214.492z"/>
					<path style="fill:#97B1C2;" d="M336.957,0c-0.676,3.108-1.053,6.328-1.053,9.639c0,24.988,20.256,45.245,45.244,45.245
						c24.988,0,45.242-20.257,45.242-45.245c0-3.311-0.377-6.53-1.053-9.639H336.957z"/>
					<path style="fill:#97B1C2;" d="M313.281,24.509c0-12.493,10.127-22.622,22.623-22.622c12.492,0,22.621,10.129,22.621,22.622
						c0,12.495-10.129,22.623-22.621,22.623C323.408,47.132,313.281,37.004,313.281,24.509z"/>
					<path style="fill:#97B1C2;" d="M140.41,30.11c0-12.493,10.127-22.621,22.622-22.621c12.493,0,22.622,10.128,22.622,22.621
						c0,12.495-10.129,22.623-22.622,22.623C150.537,52.733,140.41,42.605,140.41,30.11z"/>
					<path style="fill:#97B1C2;" d="M81.072,35.239c0-12.493,10.127-22.622,22.622-22.622c12.493,0,22.622,10.129,22.622,22.622
						c0,12.495-10.128,22.623-22.622,22.623C91.2,57.862,81.072,47.734,81.072,35.239z"/>
					<path style="fill:#97B1C2;" d="M328.754,0c1.213,15.025,13.777,26.845,29.115,26.845c15.338,0,27.904-11.819,29.117-26.845
						H328.754z"/>
					<path style="fill:#97B1C2;" d="M204.707,0c1.841,14.894,14.529,26.429,29.921,26.429c15.395,0,28.082-11.534,29.922-26.429
						H204.707z"/>
					<path style="fill:#97B1C2;" d="M114.646,0c-4.361,5.229-6.995,11.947-6.995,19.289c0,16.659,13.504,30.163,30.163,30.163
						c16.658,0,30.163-13.504,30.163-30.163c0-7.342-2.634-14.06-6.995-19.289H114.646z"/>
				</g>
			</g>
			<polygon style="fill:#97B1C2;" points="0,0 0,9.639 450,19.289 450,0 			"/>
		</g>
	</g>
</g>
<g>
	<path style="fill:#FFFFFF;" d="M117.633,128.343c-0.008,0.606-0.506,1.093-1.114,1.085c-0.607-0.007-1.093-0.506-1.086-1.113
		c0.008-0.608,0.506-1.094,1.113-1.086C117.155,127.236,117.641,127.735,117.633,128.343z"/>
	<path style="fill:#FFFFFF;" d="M146.933,90.64c-0.007,0.606-0.506,1.093-1.113,1.086c-0.608-0.007-1.094-0.507-1.086-1.113
		c0.008-0.608,0.506-1.095,1.114-1.087C146.454,89.533,146.94,90.032,146.933,90.64z"/>
	<path style="fill:#FFFFFF;" d="M187.614,91.74c-0.008,0.606-0.506,1.093-1.113,1.085c-0.608-0.007-1.095-0.506-1.087-1.113
		c0.008-0.608,0.506-1.094,1.114-1.086C187.136,90.633,187.622,91.132,187.614,91.74z"/>
	<path style="fill:#FFFFFF;" d="M239.981,84.44c-0.008,0.606-0.506,1.094-1.113,1.086c-0.608-0.008-1.095-0.507-1.087-1.113
		c0.007-0.608,0.506-1.094,1.114-1.087C239.503,83.334,239.988,83.832,239.981,84.44z"/>
	<path style="fill:#FFFFFF;" d="M286.127,103.794c-0.008,0.606-0.506,1.093-1.113,1.085c-0.607-0.007-1.094-0.507-1.086-1.113
		c0.008-0.607,0.506-1.094,1.113-1.086C285.648,102.687,286.134,103.186,286.127,103.794z"/>
	<path style="fill:#FFFFFF;" d="M319.299,114.108c-0.007,0.606-0.507,1.093-1.113,1.085c-0.607-0.008-1.093-0.506-1.086-1.113
		c0.008-0.608,0.506-1.094,1.113-1.087C318.819,113.002,319.307,113.5,319.299,114.108z"/>
	<path style="fill:#FFFFFF;" d="M315.742,51.401c-0.004,0.304-0.254,0.546-0.557,0.543l0,0c-0.304-0.004-0.547-0.253-0.543-0.557
		l0.265-30.401c0.004-0.304,0.253-0.547,0.557-0.543l0,0c0.304,0.004,0.547,0.253,0.543,0.557L315.742,51.401z"/>
	<path style="fill:#FFFFFF;" d="M177.172,70.281c-0.004,0.304-0.253,0.546-0.557,0.543l0,0c-0.304-0.004-0.547-0.253-0.543-0.557
		l0.265-65.844c0.003-0.304,0.253-0.546,0.557-0.543l0,0c0.303,0.004,0.547,0.252,0.543,0.557L177.172,70.281z"/>
	<path style="fill:#FFFFFF;" d="M60.742,70.281c-0.004,0.304-0.253,0.546-0.557,0.543l0,0c-0.304-0.004-0.547-0.253-0.543-0.557
		l0.265-65.844c0.003-0.304,0.253-0.546,0.557-0.543l0,0c0.303,0.004,0.547,0.252,0.543,0.557L60.742,70.281z"/>
	<path style="fill:#FFFFFF;" d="M416.055,86.543c-0.004,0.304-0.254,0.546-0.557,0.543l0,0c-0.304-0.004-0.547-0.253-0.543-0.557
		l0.266-65.844c0.004-0.304,0.252-0.546,0.557-0.543l0,0c0.303,0.004,0.547,0.252,0.543,0.557L416.055,86.543z"/>
	<path style="fill:#FFFFFF;" d="M138.914,330.744c-0.004,0.304-0.253,0.547-0.557,0.543l0,0c-0.304-0.003-0.547-0.253-0.543-0.557
		l0.398-33.51c0.004-0.303,0.253-0.546,0.557-0.542l0,0c0.303,0.003,0.547,0.253,0.543,0.557L138.914,330.744z"/>
	<path style="fill:#FFFFFF;" d="M369.278,350.245c-0.004,0.304-0.254,0.547-0.557,0.543l0,0c-0.305-0.003-0.547-0.253-0.543-0.557
		l0.398-33.51c0.004-0.303,0.252-0.546,0.557-0.542l0,0c0.303,0.003,0.547,0.253,0.543,0.557L369.278,350.245z"/>
	<path style="fill:#FFFFFF;" d="M390.026,221.118c-0.004,0.304-0.254,0.547-0.557,0.543l0,0c-0.305-0.003-0.547-0.253-0.543-0.557
		l0.398-33.51c0.004-0.303,0.252-0.546,0.557-0.542l0,0c0.303,0.003,0.547,0.253,0.543,0.557L390.026,221.118z"/>
	<path style="fill:#FFFFFF;" d="M75.27,185.45c-0.004,0.304-0.254,0.547-0.557,0.543l0,0c-0.305-0.003-0.547-0.253-0.543-0.557
		l0.398-33.51c0.004-0.303,0.252-0.546,0.557-0.542l0,0c0.303,0.003,0.547,0.253,0.543,0.557L75.27,185.45z"/>
	<path style="fill:#FFFFFF;" d="M54.324,349.756c-0.004,0.304-0.253,0.547-0.557,0.543l0,0c-0.304-0.003-0.547-0.253-0.543-0.557
		l0.398-76.51c0.004-0.303,0.253-0.546,0.557-0.542l0,0c0.303,0.003,0.547,0.253,0.543,0.557L54.324,349.756z"/>
	<path style="fill:#FFFFFF;" d="M424.214,294.708c-0.004,0.304-0.253,0.547-0.557,0.543l0,0c-0.304-0.004-0.546-0.253-0.543-0.557
		l0.398-76.51c0.003-0.304,0.253-0.547,0.557-0.543l0,0c0.304,0.004,0.546,0.253,0.543,0.557L424.214,294.708z"/>
	<path style="fill:#FFFFFF;" d="M334.473,227.516c-0.004,0.304-0.254,0.547-0.557,0.543l0,0c-0.304-0.004-0.547-0.253-0.543-0.557
		l0.397-76.51c0.004-0.304,0.253-0.546,0.557-0.542l0,0c0.304,0.003,0.547,0.252,0.543,0.557L334.473,227.516z"/>
	<path style="fill:#FFFFFF;" d="M291.376,183.443c-0.004,0.304-0.254,0.547-0.557,0.543l0,0c-0.304-0.004-0.547-0.253-0.543-0.557
		l0.397-76.51c0.004-0.304,0.253-0.546,0.557-0.542l0,0c0.304,0.003,0.547,0.252,0.543,0.557L291.376,183.443z"/>
	<path style="fill:#FFFFFF;" d="M388.246,153.502c-0.004,0.304-0.254,0.546-0.557,0.543l0,0c-0.305-0.004-0.548-0.253-0.544-0.557
		l0.265-65.844c0.004-0.304,0.254-0.547,0.558-0.543l0,0c0.304,0.004,0.547,0.253,0.543,0.557L388.246,153.502z"/>
	<path style="fill:#FFFFFF;" d="M107.513,131.144c-0.003,0.304-0.253,0.546-0.557,0.543l0,0c-0.304-0.004-0.547-0.252-0.543-0.557
		l0.265-65.844c0.004-0.304,0.253-0.547,0.557-0.543l0,0c0.303,0.004,0.547,0.253,0.543,0.557L107.513,131.144z"/>
	<path style="fill:#FFFFFF;" d="M389.344,321.555c-0.004,0.305-0.254,0.547-0.557,0.543l0,0c-0.304-0.004-0.547-0.252-0.543-0.557
		l0.266-35.844c0.004-0.304,0.252-0.547,0.557-0.543l0,0c0.303,0.004,0.547,0.253,0.543,0.557L389.344,321.555z"/>
	<path style="fill:#FFFFFF;" d="M439.859,209.274c-0.004,0.304-0.253,0.546-0.557,0.542l0,0c-0.304-0.003-0.547-0.252-0.543-0.556
		l0.266-65.845c0.004-0.304,0.253-0.546,0.557-0.542l0,0c0.303,0.003,0.547,0.253,0.543,0.556L439.859,209.274z"/>
	<path style="fill:#FFFFFF;" d="M31.944,183.078c-0.003,0.304-0.253,0.547-0.557,0.543l0,0c-0.304-0.004-0.547-0.253-0.543-0.557
		l0.266-65.844c0.003-0.305,0.253-0.547,0.557-0.543l0,0c0.303,0.004,0.547,0.253,0.543,0.557L31.944,183.078z"/>
</g>
<g style="opacity:0.5;">
	<path style="fill:#FFFFFF;" d="M97.741,333.985c0.004-0.304,0.254-0.546,0.557-0.543l0,0c0.304,0.004,0.547,0.253,0.543,0.557
		L98.576,364.4c-0.004,0.304-0.253,0.547-0.557,0.543l0,0c-0.304-0.004-0.547-0.253-0.543-0.557L97.741,333.985z"/>
	<path style="fill:#FFFFFF;" d="M278.487,314.854c0.004-0.304,0.253-0.546,0.557-0.543l0,0c0.304,0.004,0.547,0.253,0.543,0.557
		l-0.266,35.845c-0.003,0.304-0.253,0.546-0.557,0.543l0,0c-0.303-0.004-0.547-0.253-0.543-0.557L278.487,314.854z"/>
	<path style="fill:#FFFFFF;" d="M422.696,314.854c0.004-0.304,0.254-0.546,0.557-0.543l0,0c0.304,0.004,0.547,0.253,0.543,0.557
		l-0.265,26.845c-0.004,0.304-0.253,0.546-0.557,0.543l0,0c-0.304-0.004-0.547-0.253-0.543-0.557L422.696,314.854z"/>
	<path style="fill:#FFFFFF;" d="M22.443,315.184c0.004-0.304,0.254-0.546,0.557-0.543l0,0c0.304,0.004,0.547,0.253,0.543,0.557
		l-0.266,46.845c-0.004,0.304-0.252,0.546-0.557,0.543l0,0c-0.303-0.004-0.547-0.253-0.543-0.557L22.443,315.184z"/>
	<path style="fill:#FFFFFF;" d="M348.554,133.088c0.004-0.304,0.254-0.547,0.557-0.543l0,0c0.305,0.003,0.547,0.253,0.543,0.557
		l-0.397,33.51c-0.004,0.303-0.253,0.546-0.557,0.542l0,0c-0.304-0.003-0.547-0.253-0.543-0.557L348.554,133.088z"/>
	<path style="fill:#FFFFFF;" d="M350.051,35.972c0.004-0.304,0.254-0.547,0.557-0.543l0,0c0.305,0.003,0.547,0.253,0.543,0.557
		l-0.397,33.51c-0.004,0.303-0.253,0.546-0.557,0.542l0,0c-0.304-0.003-0.547-0.253-0.543-0.557L350.051,35.972z"/>
	<path style="fill:#FFFFFF;" d="M229.236,15.505c0.004-0.304,0.254-0.547,0.557-0.543l0,0c0.305,0.003,0.547,0.253,0.543,0.557
		l-0.398,33.51c-0.004,0.303-0.252,0.546-0.557,0.542l0,0c-0.303-0.003-0.547-0.253-0.543-0.557L229.236,15.505z"/>
	<path style="fill:#FFFFFF;" d="M32.943,208.559c0.004-0.305,0.254-0.547,0.557-0.543l0,0c0.305,0.002,0.547,0.252,0.543,0.557
		l-0.398,33.51c-0.004,0.303-0.252,0.545-0.557,0.541l0,0c-0.303-0.002-0.547-0.252-0.543-0.557L32.943,208.559z"/>
	<path style="fill:#FFFFFF;" d="M380.389,199.686c0.004-0.304,0.254-0.547,0.557-0.543l0,0c0.305,0.003,0.547,0.253,0.543,0.557
		l-0.398,33.51c-0.004,0.303-0.252,0.546-0.557,0.542l0,0c-0.303-0.003-0.547-0.253-0.543-0.557L380.389,199.686z"/>
	<path style="fill:#FFFFFF;" d="M409.043,117.713c0.004-0.304,0.254-0.547,0.557-0.543l0,0c0.305,0.003,0.547,0.253,0.543,0.557
		l-0.397,45.51c-0.004,0.303-0.253,0.546-0.557,0.542l0,0c-0.304-0.003-0.547-0.253-0.543-0.557L409.043,117.713z"/>
	<path style="fill:#FFFFFF;" d="M23.258,29.929c0.004-0.304,0.253-0.547,0.557-0.543l0,0c0.304,0.004,0.546,0.253,0.543,0.557
		l-0.398,31.51c-0.003,0.304-0.253,0.547-0.557,0.543l0,0c-0.304-0.004-0.546-0.253-0.543-0.557L23.258,29.929z"/>
	<path style="fill:#FFFFFF;" d="M121.186,157.62c0.004-0.304,0.254-0.547,0.557-0.543l0,0c0.304,0.004,0.547,0.253,0.543,0.557
		l-0.397,46.51c-0.004,0.304-0.253,0.546-0.557,0.542l0,0c-0.304-0.003-0.547-0.252-0.543-0.557L121.186,157.62z"/>
	<path style="fill:#FFFFFF;" d="M164.283,201.692c0.004-0.304,0.254-0.547,0.557-0.543l0,0c0.304,0.004,0.547,0.253,0.543,0.557
		l-0.397,76.51c-0.004,0.304-0.253,0.547-0.557,0.543l0,0c-0.304-0.004-0.547-0.253-0.543-0.557L164.283,201.692z"/>
	<path style="fill:#FFFFFF;" d="M86.971,212.298c0.004-0.304,0.254-0.547,0.557-0.543l0,0c0.305,0.004,0.548,0.253,0.544,0.557
		l-0.265,51.844c-0.004,0.304-0.254,0.547-0.558,0.543l0,0c-0.304-0.004-0.547-0.253-0.543-0.557L86.971,212.298z"/>
	<path style="fill:#FFFFFF;" d="M348.146,253.991c0.003-0.304,0.253-0.546,0.557-0.543l0,0c0.304,0.004,0.547,0.253,0.543,0.557
		l-0.266,65.845c-0.004,0.304-0.253,0.547-0.557,0.543l0,0c-0.303-0.004-0.547-0.253-0.543-0.557L348.146,253.991z"/>
	<path style="fill:#FFFFFF;" d="M80.655,81.934c0.004-0.305,0.254-0.547,0.557-0.543l0,0c0.304,0.004,0.547,0.252,0.543,0.557
		l-0.266,35.844c-0.004,0.304-0.252,0.547-0.557,0.543l0,0c-0.303-0.004-0.547-0.253-0.543-0.557L80.655,81.934z"/>
	<path style="fill:#FFFFFF;" d="M140.272,28.284c0.004-0.305,0.254-0.547,0.557-0.543l0,0c0.305,0.004,0.547,0.252,0.543,0.557
		l-0.264,65.844c-0.004,0.304-0.254,0.547-0.557,0.543l0,0c-0.305-0.004-0.547-0.253-0.543-0.557L140.272,28.284z"/>
	<path style="fill:#FFFFFF;" d="M295.259,197.358c0.003-0.304,0.253-0.546,0.557-0.542l0,0c0.304,0.003,0.547,0.253,0.543,0.556
		l-0.266,28.845c-0.004,0.304-0.253,0.546-0.557,0.542l0,0c-0.303-0.003-0.547-0.252-0.543-0.556L295.259,197.358z"/>
</g>
<g>
	<path style="fill:#AD1400;" d="M223.221,130.245c-47.323,0.684-98.299,16.28-125.062,48.892
		c31.237-0.047,55.61,16.603,55.61,16.603c35.467-11.5,69.452,3.822,69.452,3.822s33.979-15.322,69.447-3.822
		c0,0,24.37-16.65,55.611-16.603C321.514,146.525,270.543,130.929,223.221,130.245z"/>
	<g>
		<g>
			<path style="fill:#FFD097;" d="M230.354,274.113c-1.347-3.948-2.693-7.896-4.041-11.843c-5.908,2.439-12.078,4.317-18.424,5.591
				c0.457,3.339,0.914,6.678,1.373,10.018C216.361,277.31,223.425,276.055,230.354,274.113z"/>
			<path style="fill:#FFD097;" d="M227.66,266.218c1.144-0.39,1.738-1.604,1.34-2.685c-0.4-1.081-1.6-1.634-2.688-1.263
				c-1.088,0.372-1.698,1.542-1.354,2.642C225.304,266.011,226.518,266.608,227.66,266.218z"/>
		</g>
		<g>
			<path style="fill:#FFD097;" d="M92.544,310.912c3.924,1.416,7.847,2.831,11.771,4.247c1.789-6.137,4.178-12.127,7.15-17.877
				c-2.892-1.73-5.785-3.46-8.678-5.189C98.794,297.99,95.359,304.29,92.544,310.912z"/>
			<path style="fill:#FFD097;" d="M100.392,313.743c-0.411,1.137,0.166,2.36,1.258,2.725c1.094,0.363,2.275-0.228,2.666-1.309
				c0.39-1.082-0.143-2.29-1.216-2.708C102.026,312.034,100.801,312.607,100.392,313.743z"/>
			<path style="fill:#FFD097;" d="M96.142,312.693c-0.459,1.29,0.162,2.661,1.353,3.049c1.192,0.389,2.486-0.301,2.923-1.527
				c0.436-1.226-0.131-2.577-1.301-3.029C97.948,310.733,96.601,311.403,96.142,312.693z"/>
			<path style="fill:#FFD097;" d="M92.544,310.912c-0.443,1.227,0.108,2.527,1.2,2.891c1.094,0.363,2.3-0.302,2.724-1.475
				c0.422-1.173-0.082-2.454-1.156-2.872C94.24,309.038,92.987,309.685,92.544,310.912z"/>
		</g>
		<path style="fill:#00ADBF;" d="M125.964,320.871c-4.485,6.825,3.535,34.945,3.535,34.945h18.171v-14h12.049v14h18.171
			c0,0,8.02-28.12,3.535-34.945C172.659,307.533,134.729,307.532,125.964,320.871z"/>
		<path style="fill:#0098A0;" d="M125.452,337.336c18.786,2.027,37.739,1.966,56.515-0.19c0.71-4.713,1.086-9.384,0.602-12.751
			h-57.747C124.33,327.808,124.723,332.559,125.452,337.336z"/>
		<path style="fill:#FEB101;" d="M136.542,282.543c-11.809,6.411-22.159,15.995-29.678,28.155
			c-4.168-2.043-8.336-4.084-12.504-6.126c6.057-15.547,16.161-29.54,29.546-40.43c-0.001-0.002-0.001-0.002-0.001-0.002
			c6.796-4.672,15.026-2.968,17.571,2.63C144.046,272.39,141.563,279.058,136.542,282.543z"/>
		<path style="fill:#FEB101;" d="M180.155,261.657c12.884,3.817,26.979,4.359,40.895,1.077c1.502,4.391,3.006,8.781,4.51,13.174
			c-15.276,6.71-32.315,9.46-49.48,7.695c-0.001,0.002-0.001,0.002-0.001,0.002c-8.109-1.502-12.724-8.526-10.565-14.284
			C167.669,263.53,174.139,260.571,180.155,261.657z"/>
		<path style="fill:#FEB101;" d="M175.057,258.403c-8.23-9.252-34.495-9.252-42.725,0c-13.986,15.726-19.039,71.262-19.039,71.262
			c26.694,5.092,54.11,5.092,80.804,0C194.096,329.665,189.042,274.129,175.057,258.403z"/>
		<path style="fill:#FEB101;" d="M175.057,258.403c-8.23-9.252-34.495-9.252-42.725,0c-13.986,15.726-19.039,71.262-19.039,71.262
			c26.694,5.092,54.11,5.092,80.804,0C194.096,329.665,189.042,274.129,175.057,258.403z"/>
		<path style="fill:#E29700;" d="M184.096,262.703c-1.324-0.317-2.641-0.66-3.941-1.046c-0.931-0.168-1.872-0.228-2.806-0.207
			c-0.736-1.13-1.499-2.155-2.292-3.047c-8.23-9.252-34.495-9.252-42.725,0c-0.842,0.946-1.65,2.04-2.428,3.255
			c-1.986,0.349-4.017,1.137-5.937,2.445c6.494,5.85,15.087,9.413,24.516,9.413h9.628
			C168.267,273.517,177.458,269.381,184.096,262.703z"/>
		<g>
			<path style="fill:#E29700;" d="M126.543,280.851c0,0-13.251,15.828-19.441,26.417l-12.743-2.695
				c4.169,2.042,8.337,4.083,12.504,6.126c3.304-5.345,7.156-10.189,11.438-14.488c-3.541,17.331-5.009,33.455-5.009,33.455
				c1.852,0.354,3.708,0.676,5.566,0.98c0.717-6.62,2.119-22.554,4.342-33.435L126.543,280.851z"/>
			<path style="fill:#E29700;" d="M186.273,284.117c13.666-0.005,27.042-2.831,39.286-8.209c-1.504-4.393-3.008-8.783-4.51-13.174
				l1.253,12.337c-23.69,8.268-42.53,4.048-42.53,4.048l1.668,6.281c3.989,15.02,7.246,37.002,8.179,45.064
				c1.494-0.252,2.986-0.515,4.476-0.799C194.096,329.665,191.866,305.177,186.273,284.117z"/>
		</g>
		<path style="fill:#FDEA74;" d="M181.775,321.603c-5.309-2.81-9.652-7.153-12.463-12.463c1.495-0.792,2.991-1.583,4.486-2.375
			c2.335,4.41,5.942,8.018,10.352,10.353C183.358,318.613,182.567,320.108,181.775,321.603z"/>
		<path style="fill:#FDEA74;" d="M125.613,321.603c5.309-2.81,9.652-7.153,12.463-12.463c-1.495-0.792-2.991-1.583-4.486-2.375
			c-2.335,4.41-5.942,8.018-10.353,10.353C124.03,318.613,124.821,320.108,125.613,321.603z"/>
		<rect x="152.066" y="258.202" style="fill:#FDEA74;" width="3.257" height="75.269"/>
		<g>
			<path style="fill:#FFFFFF;" d="M140.395,294.721c0,0.854-0.692,1.546-1.546,1.546l0,0c-0.854,0-1.546-0.691-1.546-1.546v-34.972
				c0-0.855,0.692-1.547,1.546-1.547l0,0c0.854,0,1.546,0.691,1.546,1.547V294.721z"/>
			<path style="fill:#FFFFFF;" d="M170.117,294.721c0,0.854-0.691,1.546-1.546,1.546l0,0c-0.854,0-1.546-0.691-1.546-1.546v-34.972
				c0-0.855,0.692-1.547,1.546-1.547l0,0c0.855,0,1.546,0.691,1.546,1.547V294.721z"/>
			<path style="fill:#E77544;" d="M142.261,288.647c0,1.902-1.542,3.445-3.445,3.445c-1.903,0-3.446-1.543-3.446-3.445
				c0-1.903,1.543-3.445,3.446-3.445C140.719,285.202,142.261,286.744,142.261,288.647z"/>
			<path style="fill:#E77544;" d="M172.019,288.647c0,1.902-1.543,3.445-3.446,3.445c-1.903,0-3.446-1.543-3.446-3.445
				c0-1.903,1.543-3.445,3.446-3.445C170.476,285.202,172.019,286.744,172.019,288.647z"/>
		</g>
		<g>
			<path style="fill:#C9771D;" d="M194.714,224.718c0,22.877-18.545,41.422-41.421,41.422c-22.877,0-41.421-18.545-41.421-41.422
				c0-22.877,18.544-41.421,41.421-41.421C176.169,183.297,194.714,201.841,194.714,224.718z"/>
			<g>
				<path style="fill:#FFD097;" d="M116.171,245.021c-4.087,0-7.395-3.311-7.395-7.394l0,0c0-4.082,3.308-7.393,7.395-7.393h75.048
					c4.082,0,7.393,3.311,7.393,7.393l0,0c0,4.083-3.311,7.394-7.393,7.394H116.171z"/>
				<g>
					<path style="fill:#F5BE7D;" d="M116.171,233.577c-2.234,0-4.053,1.817-4.053,4.051c0,2.234,1.819,4.053,4.053,4.053h75.048
						c2.233,0,4.052-1.818,4.052-4.053c0-2.233-1.819-4.051-4.052-4.051H116.171z"/>
				</g>
			</g>
			<path style="fill:#FFD097;" d="M148.883,267.404c-18.552,0-33.59-15.042-33.59-33.595l0,0c0-18.549,15.038-33.59,33.59-33.59
				h8.824c18.551,0,33.592,15.041,33.592,33.59l0,0c0,18.553-15.041,33.595-33.59,33.595H148.883z"/>
			<path style="fill:#C9771D;" d="M108.821,224.395c0.119,0.001,0.237,0.009,0.357,0.009h13.169
				c19.997,0,37.257-11.719,45.299-28.662c-0.119-0.001-0.236-0.009-0.355-0.009h-13.168
				C134.122,195.732,116.862,207.452,108.821,224.395z"/>
			<path style="fill:#D68738;" d="M125.12,214.624c0.062-0.018,0.124-0.03,0.186-0.048l6.771-1.933
				c10.281-2.934,17.434-11.491,19.083-21.383c-0.061,0.018-0.123,0.031-0.184,0.049l-6.77,1.931
				C133.922,196.176,126.769,204.733,125.12,214.624z"/>
			<path style="fill:#C9771D;" d="M153.292,257.739c-5.356,0-10.716-1.874-14.896-5.617c-0.614-0.553-0.667-1.496-0.113-2.114
				c0.549-0.613,1.496-0.659,2.108-0.112c7.237,6.482,18.57,6.483,25.8,0c0.614-0.555,1.561-0.506,2.114,0.112
				c0.55,0.618,0.503,1.562-0.116,2.114C164.013,255.865,158.651,257.739,153.292,257.739z"/>
			<path style="fill:#E77544;" d="M152.556,243.599c-2.219,0-4.014-1.799-4.014-4.016c0,0,1.795-10.932,4.014-10.932l0,0
				c2.218,0,4.012,10.932,4.012,10.932C156.568,241.8,154.773,243.599,152.556,243.599L152.556,243.599z"/>
			<path style="fill:#171E21;" d="M177.389,233.625c0,2.866-2.321,5.189-5.187,5.189c-2.866,0-5.188-2.322-5.188-5.189
				c0-2.865,2.322-5.189,5.188-5.189C175.067,228.436,177.389,230.76,177.389,233.625z"/>
			<path style="fill:#F7B27B;" d="M183.68,246.308c0,2.865-2.321,5.188-5.187,5.188c-2.867,0-5.189-2.322-5.189-5.188
				c0-2.865,2.322-5.189,5.189-5.189C181.358,241.118,183.68,243.442,183.68,246.308z"/>
			<path style="fill:#F7B27B;" d="M133.412,246.308c0,2.865-2.321,5.188-5.186,5.188c-2.867,0-5.189-2.322-5.189-5.188
				c0-2.865,2.322-5.189,5.189-5.189C131.09,241.118,133.412,243.442,133.412,246.308z"/>
			<path style="fill:#171E21;" d="M137.604,233.625c0,2.866-2.323,5.189-5.188,5.189c-2.865,0-5.188-2.322-5.188-5.189
				c0-2.865,2.323-5.189,5.188-5.189C135.281,228.436,137.604,230.76,137.604,233.625z"/>
			<path style="fill:#FFFFFF;" d="M171.757,231.625c0,0.86-0.696,1.557-1.556,1.557c-0.86,0-1.557-0.696-1.557-1.557
				c0-0.859,0.697-1.557,1.557-1.557C171.061,230.068,171.757,230.766,171.757,231.625z"/>
			<path style="fill:#FFFFFF;" d="M131.973,231.625c0,0.86-0.697,1.557-1.557,1.557c-0.859,0-1.556-0.696-1.556-1.557
				c0-0.859,0.697-1.557,1.556-1.557C131.276,230.068,131.973,230.766,131.973,231.625z"/>
		</g>
		<g>
			<g>
				<polygon style="fill:#FF4200;" points="147.688,374.15 132.371,374.15 129.371,355.816 147.688,355.816 				"/>
				<path style="fill:#FF6D00;" d="M135.02,361.483c-6.996,0-12.667,5.671-12.667,12.667h25.334
					C147.688,367.154,142.016,361.483,135.02,361.483z"/>
				<path style="fill:#FFB583;" d="M134.49,365.503c0,1.56-1.265,2.824-2.825,2.824c-1.56,0-2.825-1.265-2.825-2.824
					c0-1.56,1.265-2.825,2.825-2.825C133.226,362.678,134.49,363.942,134.49,365.503z"/>
				<rect x="122.354" y="374.15" style="fill:#FFB583;" width="25.334" height="2.934"/>
				<polygon style="fill:#FFB583;" points="147.688,358.645 147.688,355.816 129.371,355.816 129.834,358.645 				"/>
			</g>
			<g>
				<g>
					<polygon style="fill:#FF4200;" points="159.702,374.15 175.018,374.15 178.018,355.816 159.702,355.816 					"/>
					<g>
						<path style="fill:#FF6D00;" d="M172.369,361.483c-6.996,0-12.667,5.671-12.667,12.667h25.334
							C185.036,367.154,179.364,361.483,172.369,361.483z"/>
					</g>
				</g>
				<path style="fill:#FFB583;" d="M165.899,365.503c0,1.56,1.265,2.824,2.825,2.824c1.56,0,2.825-1.265,2.825-2.824
					c0-1.56-1.265-2.825-2.825-2.825C167.164,362.678,165.899,363.942,165.899,365.503z"/>
				<rect x="159.702" y="374.15" style="fill:#FFB583;" width="25.334" height="2.934"/>
				<polygon style="fill:#FFB583;" points="159.702,358.645 159.702,355.816 178.018,355.816 177.555,358.645 				"/>
			</g>
		</g>
	</g>
	<g>
		<g>
			<g>
				<g>
					<path style="fill:#072431;" d="M236.391,290.974h-1.354c-6.736,0-12.216-5.479-12.216-12.215V146.847
						c0-1.719,1.394-3.113,3.112-3.113c1.719,0,3.112,1.395,3.112,3.113v131.912c0,3.303,2.688,5.989,5.992,5.989h1.354
						c3.303,0,5.99-2.686,5.99-5.989c0-1.72,1.393-3.112,3.111-3.112c1.721,0,3.114,1.393,3.114,3.112
						C248.606,285.494,243.126,290.974,236.391,290.974z"/>
				</g>
				<path style="fill:#0F4967;" d="M245.492,275.647c-1.719,0-3.111,1.393-3.111,3.112c0,3.303-2.688,5.989-5.99,5.989h-1.354
					c-3.305,0-5.992-2.686-5.992-5.989v-59.288l-6.224,0.001v59.287c0,6.735,5.48,12.215,12.216,12.215h1.354
					c6.735,0,12.216-5.479,12.216-12.215C248.606,277.039,247.213,275.647,245.492,275.647z"/>
				<path style="fill:#FFD097;" d="M230.354,274.113c1.235-0.421,1.906-1.664,1.507-2.743c-0.4-1.081-1.673-1.607-2.854-1.205
					c-1.18,0.403-1.864,1.598-1.52,2.697C227.831,273.961,229.119,274.534,230.354,274.113z"/>
				<path style="fill:#FFD097;" d="M223.556,267.26c1.294-0.447,1.976-1.789,1.535-2.961c-0.442-1.174-1.789-1.753-3.019-1.327
					c-1.229,0.426-1.93,1.713-1.552,2.908C220.897,267.075,222.262,267.708,223.556,267.26z"/>
				<path style="fill:#FFD097;" d="M228.697,265.863c1.295-0.447,1.977-1.789,1.535-2.961c-0.441-1.174-1.789-1.753-3.02-1.327
					c-1.229,0.426-1.929,1.713-1.551,2.908C226.039,265.679,227.404,266.311,228.697,265.863z"/>
				<path style="fill:#FFD097;" d="M229.78,270.009c1.294-0.447,1.976-1.789,1.534-2.961c-0.441-1.174-1.788-1.753-3.019-1.327
					c-1.23,0.426-1.93,1.713-1.552,2.908C227.121,269.824,228.486,270.457,229.78,270.009z"/>
				<circle style="fill:#0F4967;" cx="225.933" cy="219.471" r="3.112"/>
			</g>
		</g>
		<g>
			<path style="fill:#FF5F48;" d="M226.621,101.937c0,1.879-1.523,3.402-3.403,3.402l0,0c-1.878,0-3.401-1.523-3.401-3.402v-5.045
				c0-1.88,1.523-3.402,3.401-3.402l0,0c1.879,0,3.403,1.522,3.403,3.402V101.937z"/>
			<g>
				<path style="fill:#FF5F48;" d="M223.222,98.251c-60.579,0.09-114.114,33.894-125.037,80.839
					c6.474-3.434,14.548-6.046,23.476-7.28c14.788-1.99,43.083,0.244,51.108,4.536c9.467-8.966,28.43-15.814,50.453-15.781
					c22.032-0.028,40.985,6.815,50.454,15.778c8.047-4.285,36.327-6.521,51.11-4.531c8.96,1.238,17.003,3.846,23.467,7.278
					C337.34,132.145,283.795,98.343,223.222,98.251z"/>
				<path style="fill:#FF5F48;" d="M223.222,98.251c-60.579,0.09-114.114,33.894-125.037,80.839
					c6.474-3.434,14.548-6.046,23.476-7.28c14.788-1.99,43.083,0.244,51.108,4.536c9.467-8.966,28.43-15.814,50.453-15.781
					c22.032-0.028,40.985,6.815,50.454,15.778c8.047-4.285,36.327-6.521,51.11-4.531c8.96,1.238,17.003,3.846,23.467,7.278
					C337.34,132.145,283.795,98.343,223.222,98.251z"/>
				<path style="fill:#C81B00;" d="M223.222,98.251c0,20.772,0,41.543,0,62.313c22.032-0.028,40.985,6.815,50.454,15.778
					c8.047-4.285,36.327-6.521,51.11-4.531c8.96,1.238,17.003,3.846,23.467,7.278C337.34,132.145,283.795,98.343,223.222,98.251z"/>
				<path style="fill:#E42503;" d="M259.248,129.928c-17.201-24.804-35.974-31.667-36.026-31.677
					c-0.051,0.009-18.824,6.873-36.024,31.677c-13.155,18.9-14.477,46.406-14.429,46.418c9.467-8.966,28.43-15.814,50.453-15.781
					c22.023-0.033,40.987,6.817,50.454,15.778C273.727,176.334,272.405,148.828,259.248,129.928z"/>
			</g>
			<path style="fill:#FF5F48;" d="M223.222,98.251c-1.959,0.003-3.912,0.043-5.855,0.115c0.155,1.23,2.713,2.209,5.855,2.209
				c3.145,0,5.704-0.979,5.856-2.209C227.134,98.294,225.183,98.254,223.222,98.251z"/>
		</g>
	</g>
	<g>
		<path style="fill:#A37140;" d="M334.828,235.814c0,25.553-20.716,34.269-46.27,34.269c-25.553,0-46.269-8.716-46.269-34.269
			c0-25.554,20.716-46.27,46.269-46.27C314.112,189.545,334.828,210.261,334.828,235.814z"/>
		<g>
			<g>
				<path style="fill:#A37140;" d="M242.889,237.148c0,10.213-2.438,19.914-8.583,28.694c13.714-6.587,22.571-16.986,22.571-28.694
					H242.889z"/>
				<path style="fill:#A37140;" d="M248.893,248.075c0,10.214-3.439,19.915-9.583,28.695c13.714-6.588,22.57-16.987,22.57-28.695
					H248.893z"/>
				<path style="fill:#A37140;" d="M257.839,252.238c0,10.213-3.439,19.915-9.584,28.695c13.715-6.588,22.571-16.987,22.571-28.695
					H257.839z"/>
			</g>
		</g>
		<g>
			<g>
				<path style="fill:#A37140;" d="M334.555,237.309c0,10.213,2.438,19.914,8.583,28.694c-13.714-6.587-22.571-16.986-22.571-28.694
					H334.555z"/>
				<path style="fill:#A37140;" d="M328.551,248.236c0,10.214,3.439,19.915,9.583,28.695c-13.714-6.588-22.57-16.987-22.57-28.695
					H328.551z"/>
				<path style="fill:#A37140;" d="M319.604,252.399c0,10.213,3.439,19.915,9.584,28.695c-13.715-6.588-22.571-16.987-22.571-28.695
					H319.604z"/>
			</g>
		</g>
		<path style="fill:#FEB101;" d="M264.449,319.504c-3.93,7.082,3.096,36.259,3.096,36.259h15.916v-14.526h10.553v14.526h15.916
			c0,0,7.025-29.177,3.096-36.259C305.348,305.665,272.127,305.663,264.449,319.504z"/>
		<path style="fill:#0098A0;" d="M259.433,336.588c19.492,2.104,39.157,2.039,58.639-0.198c0.737-4.89,1.127-9.736,0.624-13.229
			h-59.918C258.268,326.701,258.677,331.631,259.433,336.588z"/>
		<path style="fill:#FF6D00;" d="M305.678,289.654c-6.526-7.337-27.355-7.337-33.881,0c-11.091,12.47-15.098,56.509-15.098,56.509
			c21.168,4.039,42.908,4.039,64.076,0C320.775,346.163,316.769,302.124,305.678,289.654z"/>
		<path style="fill:#E55C00;" d="M319.543,335.817c-1.912-13.812-6.193-37.537-13.865-46.163c-6.526-7.337-27.355-7.337-33.881,0
			c-7.672,8.626-11.953,32.352-13.865,46.163C278.33,339.813,299.145,339.813,319.543,335.817z"/>
		<path style="fill:#FFB583;" d="M307.448,254.688c-7.208-9.6-30.214-9.6-37.423,0c-12.25,16.317-16.676,73.94-16.676,73.94
			c23.381,5.283,47.394,5.283,70.775,0C324.125,328.628,319.698,271.005,307.448,254.688z"/>
		<g>
			<path style="fill:#FFB583;" d="M307.448,254.688c-7.208-9.6-30.214-9.6-37.423,0c-12.25,16.317-16.676,73.94-16.676,73.94
				c23.381,5.283,47.394,5.283,70.775,0C324.125,328.628,319.698,271.005,307.448,254.688z"/>
		</g>
		<g>
			<path style="fill:#EF9E67;" d="M288.737,252.487c6.564,0,12.34,2.042,14.712,5.202c8.426,11.223,13.451,53.429,15.229,72.06
				c1.818-0.347,3.635-0.713,5.446-1.122c0,0-4.427-57.623-16.677-73.94c-7.208-9.6-30.214-9.6-37.423,0
				c-12.25,16.317-16.676,73.94-16.676,73.94c1.811,0.409,3.627,0.775,5.445,1.121c1.776-18.627,6.797-60.829,15.229-72.059
				C276.396,254.529,282.172,252.487,288.737,252.487z"/>
		</g>
		<g>
			<g>
				<g>
					<g>
						<g>
							<g>
								<path style="fill:#FFD097;" d="M239.098,323.533c4.266,0.736,8.529,1.473,12.795,2.21
									c0.717-6.594,2.074-13.146,4.072-19.559c-3.27-1.245-6.537-2.488-9.807-3.733
									C243.145,309.2,240.775,316.258,239.098,323.533z"/>
								<path style="fill:#FFD097;" d="M247.627,325.006c-0.213,1.235,0.598,2.382,1.778,2.556c1.184,0.174,2.284-0.643,2.487-1.818
									c0.202-1.177-0.561-2.314-1.732-2.548C248.988,322.965,247.84,323.772,247.627,325.006z"/>
								<path style="fill:#FFD097;" d="M243.096,324.702c-0.236,1.4,0.646,2.69,1.934,2.87c1.288,0.181,2.485-0.758,2.71-2.089
									c0.224-1.331-0.601-2.61-1.878-2.86C244.587,322.373,243.332,323.301,243.096,324.702z"/>
								<path style="fill:#FFD097;" d="M239.098,323.533c-0.23,1.334,0.568,2.563,1.749,2.735c1.184,0.174,2.296-0.725,2.517-1.999
									c0.219-1.274-0.527-2.492-1.701-2.726C240.491,321.31,239.328,322.199,239.098,323.533z"/>
							</g>
						</g>
					</g>
				</g>
				<path style="fill:#FFB583;" d="M278.918,286.59c-10.905,8.686-19.746,20.351-25.229,34.134
					c-4.627-1.333-9.256-2.664-13.884-3.997c3.376-16.979,11.169-33.104,22.874-46.65c0-0.003,0-0.003,0-0.003
					c6.098-6.002,14.814-5.75,18.427-0.491C284.75,274.858,283.419,282.12,278.918,286.59z"/>
				<path style="fill:#EF9E67;" d="M252.83,317.697l-13.024-0.971c4.628,1.333,9.257,2.664,13.884,3.997
					c1.938-4.872,4.855-9.186,7.575-13.491c0,0,0.505-3.037,1.469-5.49c0.77-1.959,2.903-7.296,2.903-7.296
					C260.74,299.203,255.524,311.82,252.83,317.697z"/>
			</g>
			<g>
				<g>
					<g>
						<g>
							<g>
								<path style="fill:#FFD097;" d="M338.378,323.533c-4.266,0.736-8.529,1.473-12.795,2.21
									c-0.717-6.594-2.074-13.146-4.072-19.559c3.27-1.245,6.537-2.488,9.807-3.733C334.33,309.2,336.7,316.258,338.378,323.533z"
									/>
								<path style="fill:#FFD097;" d="M329.849,325.006c0.213,1.235-0.598,2.382-1.778,2.556c-1.184,0.174-2.284-0.643-2.487-1.818
									c-0.202-1.177,0.561-2.314,1.732-2.548C328.487,322.965,329.636,323.772,329.849,325.006z"/>
								<path style="fill:#FFD097;" d="M334.38,324.702c0.236,1.4-0.646,2.69-1.934,2.87c-1.288,0.181-2.485-0.758-2.71-2.089
									c-0.224-1.331,0.601-2.61,1.878-2.86C332.889,322.373,334.144,323.301,334.38,324.702z"/>
								<path style="fill:#FFD097;" d="M338.378,323.533c0.23,1.334-0.568,2.563-1.749,2.735c-1.184,0.174-2.296-0.725-2.517-1.999
									c-0.219-1.274,0.527-2.492,1.701-2.726C336.984,321.31,338.147,322.199,338.378,323.533z"/>
							</g>
						</g>
					</g>
				</g>
				<path style="fill:#FFB583;" d="M298.558,286.59c10.905,8.686,19.746,20.351,25.229,34.134c4.627-1.333,9.256-2.664,13.884-3.997
					c-3.376-16.979-11.169-33.104-22.874-46.65c0-0.003,0-0.003,0-0.003c-6.098-6.002-14.815-5.75-18.427-0.491
					C292.726,274.858,294.057,282.12,298.558,286.59z"/>
				<path style="fill:#EF9E67;" d="M317.113,272.862c-0.755-0.939-1.525-1.87-2.317-2.786c0-0.003,0-0.003,0-0.003
					c-0.209-0.205-0.428-0.386-0.643-0.576c-1.912-6.145-4.136-11.388-6.705-14.81c-7.208-9.6-30.214-9.6-37.423,0
					c-2.569,3.423-4.794,8.667-6.706,14.811c-0.214,0.191-0.432,0.369-0.64,0.574c0,0,0,0,0,0.003
					c-0.919,1.063-1.805,2.148-2.676,3.243c6.873,6.684,16.248,10.806,26.592,10.806h3.456
					C300.63,284.125,310.201,279.817,317.113,272.862z"/>
				<path style="fill:#EF9E67;" d="M324.645,317.697l13.024-0.971c-4.628,1.333-9.257,2.664-13.884,3.997
					c-1.938-4.872-4.855-9.186-7.575-13.491c0,0-0.505-3.037-1.469-5.49c-0.77-1.959-2.903-7.296-2.903-7.296
					C316.735,299.203,321.951,311.82,324.645,317.697z"/>
			</g>
		</g>
		<g>
			<path style="fill:#FFD8BD;" d="M311.873,324.264c-5.508-2.916-10.014-7.422-12.932-12.932c1.552-0.821,3.103-1.642,4.655-2.464
				c2.423,4.576,6.165,8.319,10.741,10.741C313.517,321.161,312.695,322.713,311.873,324.264z"/>
			<path style="fill:#FFD8BD;" d="M264.601,324.264c5.509-2.916,10.015-7.422,12.932-12.932c-1.552-0.821-3.104-1.642-4.655-2.464
				c-2.422,4.576-6.164,8.319-10.741,10.741C262.957,321.161,263.779,322.713,264.601,324.264z"/>
		</g>
		<rect x="287.047" y="254.48" style="fill:#FFD8BD;" width="3.38" height="78.098"/>
		<g>
			<path style="fill:#FFFFFF;" d="M279.089,298.596c0,0.887-0.718,1.604-1.604,1.604l0,0c-0.886,0-1.604-0.718-1.604-1.604V262.31
				c0-0.888,0.718-1.604,1.604-1.604l0,0c0.887,0,1.604,0.717,1.604,1.604V298.596z"/>
			<path style="fill:#FFFFFF;" d="M301.627,298.596c0,0.887-0.717,1.604-1.604,1.604l0,0c-0.886,0-1.605-0.718-1.605-1.604V262.31
				c0-0.888,0.719-1.604,1.605-1.604l0,0c0.887,0,1.604,0.717,1.604,1.604V298.596z"/>
			<path style="fill:#E77544;" d="M281.025,292.295c0,1.974-1.602,3.574-3.576,3.574c-1.974,0-3.574-1.601-3.574-3.574
				c0-1.976,1.601-3.575,3.574-3.575C279.424,288.72,281.025,290.319,281.025,292.295z"/>
			<path style="fill:#E77544;" d="M303.6,292.295c0,1.974-1.601,3.574-3.576,3.574c-1.975,0-3.575-1.601-3.575-3.574
				c0-1.976,1.601-3.575,3.575-3.575C301.999,288.72,303.6,290.319,303.6,292.295z"/>
		</g>
		<g>
			<g>
				<path style="fill:#FFD097;" d="M252.803,254.292c-4.24,0-7.672-3.436-7.672-7.672l0,0c0-4.235,3.432-7.67,7.672-7.67h71.87
					c4.235,0,7.671,3.435,7.671,7.67l0,0c0,4.236-3.436,7.672-7.671,7.672H252.803z"/>
				<g>
					<path style="fill:#F5BE7D;" d="M252.803,242.417c-2.318,0-4.205,1.886-4.205,4.203c0,2.318,1.887,4.205,4.205,4.205h71.87
						c2.317,0,4.204-1.887,4.204-4.205c0-2.317-1.887-4.203-4.204-4.203H252.803z"/>
				</g>
			</g>
			<path style="fill:#FFD097;" d="M286.745,277.516c-19.25,0-34.852-15.607-34.852-34.857l0,0c0-19.246,15.602-34.853,34.852-34.853
				h3.155c19.248,0,34.855,15.606,34.855,34.853l0,0c0,19.25-15.607,34.857-34.854,34.857H286.745z"/>
			<path style="fill:#E77544;" d="M285.199,251.096c0,1.956,1.582,3.542,3.539,3.542c1.955,0,3.538-1.586,3.538-3.542H285.199z"/>
			<path style="fill:#171E21;" d="M317.597,244.542c0,0.726-0.587,1.313-1.313,1.313h-5.411c-0.726,0-1.314-0.588-1.314-1.313l0,0
				c0-0.726,0.588-1.314,1.314-1.314h5.411C317.01,243.229,317.597,243.816,317.597,244.542L317.597,244.542z"/>
			<path style="fill:#171E21;" d="M265.551,244.542c0,0.726-0.588,1.313-1.313,1.313h-5.412c-0.725,0-1.313-0.588-1.313-1.313l0,0
				c0-0.726,0.588-1.314,1.313-1.314h5.412C264.963,243.229,265.551,243.816,265.551,244.542L265.551,244.542z"/>
			<path style="fill:#171E21;" d="M313.322,244.542c0,2.974-2.408,5.384-5.381,5.384c-2.975,0-5.385-2.41-5.385-5.384
				c0-2.973,2.41-5.384,5.385-5.384C310.914,239.158,313.322,241.569,313.322,244.542z"/>
			<path style="fill:#F7B27B;" d="M319.85,255.626c0,2.973-2.408,5.383-5.381,5.383c-2.975,0-5.385-2.41-5.385-5.383
				c0-2.973,2.41-5.385,5.385-5.385C317.441,250.241,319.85,252.653,319.85,255.626z"/>
			<path style="fill:#FFFFFF;" d="M332.219,258.044c0,2.973-2.409,5.383-5.382,5.383c-2.975,0-5.384-2.41-5.384-5.383
				c0-2.973,2.409-5.385,5.384-5.385C329.81,252.659,332.219,255.071,332.219,258.044z"/>
			<path style="fill:#FFFFFF;" d="M280.783,262.746c0,4.393,3.561,7.955,7.957,7.955c4.394,0,7.953-3.562,7.953-7.955H280.783z"/>
			<path style="fill:#FFFFFF;" d="M255.188,258.044c0,2.973-2.408,5.383-5.381,5.383c-2.975,0-5.385-2.41-5.385-5.383
				c0-2.973,2.41-5.385,5.385-5.385C252.779,252.659,255.188,255.071,255.188,258.044z"/>
			<path style="fill:#F7B27B;" d="M267.692,255.626c0,2.973-2.409,5.383-5.382,5.383c-2.975,0-5.384-2.41-5.384-5.383
				c0-2.973,2.409-5.385,5.384-5.385C265.283,250.241,267.692,252.653,267.692,255.626z"/>
			<circle style="fill:#171E21;" cx="266.659" cy="244.542" r="5.384"/>
			<path style="fill:#FFFFFF;" d="M307.479,242.467c0,0.893-0.723,1.615-1.614,1.615c-0.893,0-1.615-0.723-1.615-1.615
				c0-0.892,0.723-1.615,1.615-1.615C306.757,240.852,307.479,241.575,307.479,242.467z"/>
			<circle style="fill:#FFFFFF;" cx="264.584" cy="242.467" r="1.615"/>
		</g>
		<g>
			<g>
				<polygon style="fill:#547EFF;" points="283.5,374.786 270.085,374.786 267.457,355.763 283.5,355.763 				"/>
				<path style="fill:#5455FF;" d="M271.568,362.389c-6.59,0-11.932,5.342-11.932,11.933H283.5
					C283.5,367.73,278.158,362.389,271.568,362.389z"/>
				<path style="fill:#D7D9FF;" d="M270.365,367.25c0,1.47-1.191,2.66-2.661,2.66s-2.661-1.19-2.661-2.66s1.191-2.661,2.661-2.661
					S270.365,365.78,270.365,367.25z"/>
				<rect x="259.636" y="374.321" style="fill:#D7D9FF;" width="23.864" height="2.763"/>
				<polygon style="fill:#D7D9FF;" points="283.5,358.697 283.5,355.763 267.457,355.763 267.863,358.697 				"/>
			</g>
			<g>
				<g>
					<polygon style="fill:#547EFF;" points="293.945,374.786 307.361,374.786 309.988,355.763 293.945,355.763 					"/>
					<g>
						<path style="fill:#5455FF;" d="M305.877,362.389c-6.59,0-11.932,5.342-11.932,11.933h23.864
							C317.81,367.73,312.468,362.389,305.877,362.389z"/>
					</g>
				</g>
				<path style="fill:#D7D9FF;" d="M298.004,367.25c0,1.47,1.191,2.66,2.66,2.66c1.471,0,2.661-1.19,2.661-2.66
					s-1.19-2.661-2.661-2.661C299.195,364.589,298.004,365.78,298.004,367.25z"/>
				<rect x="293.945" y="374.321" style="fill:#D7D9FF;" width="23.865" height="2.763"/>
				<polygon style="fill:#D7D9FF;" points="293.945,358.697 293.945,355.763 309.988,355.763 309.583,358.697 				"/>
			</g>
		</g>
		<g>
			<g>
				<path style="fill:#BA8556;" d="M316.292,235.38c-0.248,0-0.497-0.088-0.695-0.269c-1.813-1.641-4.7-2.619-7.724-2.619
					c-0.573,0-1.037-0.464-1.037-1.038c0-0.573,0.464-1.037,1.037-1.037c3.576,0,6.898,1.15,9.115,3.156
					c0.426,0.384,0.459,1.041,0.074,1.465C316.857,235.265,316.575,235.38,316.292,235.38z"/>
			</g>
			<g>
				<path style="fill:#C9771D;" d="M261.183,235.38c0.248,0,0.497-0.088,0.695-0.269c1.814-1.641,4.7-2.619,7.724-2.619
					c0.573,0,1.037-0.464,1.037-1.038c0-0.573-0.464-1.037-1.037-1.037c-3.576,0-6.898,1.15-9.115,3.156
					c-0.426,0.384-0.459,1.041-0.074,1.465C260.617,235.265,260.899,235.38,261.183,235.38z"/>
			</g>
		</g>
		<g>
			<path style="fill:#A37140;" d="M276.816,201.308l-25.25,17.222l-3.967,20.406c0,0,37.368,2.188,68.236-27.268L276.816,201.308z"
				/>
			<path style="fill:#A37140;" d="M290.329,237.455c0,0,6.587-6.215,8.265-21.779c1.679-15.563,14.926-1.816,14.926-1.816
				S315.664,234.073,290.329,237.455z"/>
			<path style="fill:#A37140;" d="M333.573,240.71c0,0-11.023-5.853-10.356-21.492c0.666-15.641-14.487-4.028-14.487-4.028
				S309.028,233.579,333.573,240.71z"/>
		</g>
	</g>
</g>
<g>
	<path style="fill:#BBCFD8;" d="M86.706,378.059c0,3.478-16.411,6.297-36.654,6.297c-20.243,0-36.653-2.819-36.653-6.297
		c0-3.477,16.41-6.296,36.653-6.296C70.296,371.763,86.706,374.582,86.706,378.059z"/>
	<path style="fill:#D6E3E8;" d="M55.053,378.059c0,0.475-2.238,0.859-5,0.859c-2.761,0-5-0.385-5-0.859c0-0.474,2.239-0.858,5-0.858
		C52.814,377.2,55.053,377.585,55.053,378.059z"/>
	<path style="fill:#BBCFD8;" d="M87.251,386.91c0,1.999-9.436,3.62-21.075,3.62c-11.639,0-21.075-1.621-21.075-3.62
		c0-1.999,9.435-3.62,21.075-3.62C77.815,383.29,87.251,384.911,87.251,386.91z"/>
</g>
<g>
	<ellipse style="fill:#BBCFD8;" cx="384.544" cy="377.142" rx="24.661" ry="4.236"/>
	<path style="fill:#BBCFD8;" d="M359.516,371.186c0-1.346,6.349-2.436,14.181-2.436c7.831,0,14.18,1.091,14.18,2.436
		c0,1.345-6.349,2.436-14.18,2.436C365.864,373.622,359.516,372.531,359.516,371.186z"/>
	<path style="fill:#BBCFD8;" d="M401.458,375.703c0-1.346,6.349-2.436,14.181-2.436c7.831,0,14.18,1.091,14.18,2.436
		c0,1.345-6.349,2.436-14.18,2.436C407.807,378.139,401.458,377.048,401.458,375.703z"/>
	<path style="fill:#BBCFD8;" d="M387.935,381.378c0-1.346,6.349-2.436,14.181-2.436c7.831,0,14.18,1.091,14.18,2.436
		c0,1.345-6.349,2.436-14.18,2.436C394.284,383.814,387.935,382.723,387.935,381.378z"/>
</g>
<g>
	<path style="fill:#D6E3E8;" d="M50.053,381.707c-6.512,0-18.827-0.763-18.827-3.648c0-2.885,12.315-3.647,18.827-3.647
		c6.512,0,18.827,0.763,18.827,3.647C68.88,380.944,56.564,381.707,50.053,381.707z M50.053,375.411
		c-11.535,0-17.827,1.749-17.827,2.647s6.292,2.648,17.827,2.648c11.535,0,17.827-1.75,17.827-2.648S61.587,375.411,50.053,375.411z
		"/>
</g>
<g>
	<path style="fill:#D6E3E8;" d="M384.544,379.76c-0.523,0-12.831-0.029-12.831-2.618s12.308-2.618,12.831-2.618
		c0.523,0,12.831,0.029,12.831,2.618S385.067,379.76,384.544,379.76z M384.544,375.523c-7.342,0-11.547,1.064-11.838,1.658
		c0.292,0.515,4.497,1.578,11.838,1.578c7.341,0,11.546-1.064,11.838-1.658C396.091,376.587,391.886,375.523,384.544,375.523z"/>
</g>
<g>
	<path style="fill:#D6E3E8;" d="M416.93,377.278c-0.314,0-7.725-0.018-7.725-1.576c0-1.559,7.41-1.576,7.725-1.576
		c0.315,0,7.726,0.018,7.726,1.576C424.655,377.261,417.245,377.278,416.93,377.278z M416.93,374.728
		c-4.42,0-6.951,0.641-7.127,0.999c0.176,0.31,2.708,0.95,7.127,0.95c4.42,0,6.952-0.641,7.128-0.999
		C423.882,375.368,421.351,374.728,416.93,374.728z"/>
</g>
<path style="fill:#B57C48;" d="M262.841,207.632c-7.059,7.059-10.986,16.184-11.903,25.89c9.708-0.915,18.833-4.843,25.892-11.903
	c7.06-7.06,10.987-16.185,11.902-25.891C279.025,196.644,269.9,200.57,262.841,207.632z"/>
<path style="fill:#B57C48;" d="M309.876,210.977c-1.352-8.593-8.414-14.618-14.934-15.244c2.912,5.942,4.226,11.353,5.192,16.888
	c0.9,5.545,1.434,11.087,0.627,17.653C306.716,227.547,311.416,219.541,309.876,210.977z"/>
</svg>
