<?xml version="1.0" encoding="UTF-8" standalone="no"?>
<!-- Generator: Adobe Illustrator 27.5.0, SVG Export Plug-In . SVG Version: 6.00 Build 0)  -->

<svg
   version="1.1"
   id="Layer_1"
   x="0px"
   y="0px"
   viewBox="0 0 256.17352 294.155"
   xml:space="preserve"
   sodipodi:docname="kids_in_rain_umbrella.svg"
   inkscape:export-filename="rain_clouds.svg"
   inkscape:export-xdpi="96"
   inkscape:export-ydpi="96"
   width="256.17352"
   height="294.155"
   inkscape:version="1.4 (86a8ad7, 2024-10-11)"
   xmlns:inkscape="http://www.inkscape.org/namespaces/inkscape"
   xmlns:sodipodi="http://sodipodi.sourceforge.net/DTD/sodipodi-0.dtd"
   xmlns="http://www.w3.org/2000/svg"
   xmlns:svg="http://www.w3.org/2000/svg"><defs
   id="defs211" /><sodipodi:namedview
   id="namedview211"
   pagecolor="#505050"
   bordercolor="#eeeeee"
   borderopacity="1"
   inkscape:showpageshadow="0"
   inkscape:pageopacity="0"
   inkscape:pagecheckerboard="0"
   inkscape:deskcolor="#505050"
   inkscape:zoom="3.9672962"
   inkscape:cx="128.17294"
   inkscape:cy="147.0775"
   inkscape:window-width="2560"
   inkscape:window-height="1369"
   inkscape:window-x="2481"
   inkscape:window-y="-8"
   inkscape:window-maximized="1"
   inkscape:current-layer="Layer_1"><inkscape:page
     x="0"
     y="0"
     width="256.17352"
     height="294.155"
     id="page2"
     margin="0"
     bleed="0" /></sodipodi:namedview>






<g
   id="g201"
   style="display:inline"
   inkscape:label="kids"
   transform="translate(-92.390488,-93.489998)">
	<ellipse
   style="display:inline;opacity:0.5;fill:#698793"
   cx="222.591"
   cy="377.064"
   rx="125.973"
   ry="10.581"
   id="ellipse2" /><path
   style="display:inline;fill:#ad1400"
   d="m 223.221,130.245 c -47.323,0.684 -98.299,16.28 -125.062,48.892 31.237,-0.047 55.61,16.603 55.61,16.603 35.467,-11.5 69.452,3.822 69.452,3.822 0,0 33.979,-15.322 69.447,-3.822 0,0 24.37,-16.65 55.611,-16.603 -26.765,-32.612 -77.736,-48.208 -125.058,-48.892 z"
   id="path85"
   inkscape:label="path85" />
	<g
   id="g127"
   inkscape:label="boy">
		<g
   id="g87">
			<path
   style="fill:#ffd097"
   d="m 230.354,274.113 c -1.347,-3.948 -2.693,-7.896 -4.041,-11.843 -5.908,2.439 -12.078,4.317 -18.424,5.591 0.457,3.339 0.914,6.678 1.373,10.018 7.099,-0.569 14.163,-1.824 21.092,-3.766 z"
   id="path86" />
			<path
   style="fill:#ffd097"
   d="m 227.66,266.218 c 1.144,-0.39 1.738,-1.604 1.34,-2.685 -0.4,-1.081 -1.6,-1.634 -2.688,-1.263 -1.088,0.372 -1.698,1.542 -1.354,2.642 0.346,1.099 1.56,1.696 2.702,1.306 z"
   id="path87" />
		</g>
		<g
   id="g91">
			<path
   style="fill:#ffd097"
   d="m 92.544,310.912 c 3.924,1.416 7.847,2.831 11.771,4.247 1.789,-6.137 4.178,-12.127 7.15,-17.877 -2.892,-1.73 -5.785,-3.46 -8.678,-5.189 -3.993,5.897 -7.428,12.197 -10.243,18.819 z"
   id="path88" />
			<path
   style="fill:#ffd097"
   d="m 100.392,313.743 c -0.411,1.137 0.166,2.36 1.258,2.725 1.094,0.363 2.275,-0.228 2.666,-1.309 0.39,-1.082 -0.143,-2.29 -1.216,-2.708 -1.074,-0.417 -2.299,0.156 -2.708,1.292 z"
   id="path89" />
			<path
   style="fill:#ffd097"
   d="m 96.142,312.693 c -0.459,1.29 0.162,2.661 1.353,3.049 1.192,0.389 2.486,-0.301 2.923,-1.527 0.436,-1.226 -0.131,-2.577 -1.301,-3.029 -1.169,-0.453 -2.516,0.217 -2.975,1.507 z"
   id="path90" />
			<path
   style="fill:#ffd097"
   d="m 92.544,310.912 c -0.443,1.227 0.108,2.527 1.2,2.891 1.094,0.363 2.3,-0.302 2.724,-1.475 0.422,-1.173 -0.082,-2.454 -1.156,-2.872 -1.072,-0.418 -2.325,0.229 -2.768,1.456 z"
   id="path91" />
		</g>
		<path
   style="fill:#00adbf"
   d="m 125.964,320.871 c -4.485,6.825 3.535,34.945 3.535,34.945 h 18.171 v -14 h 12.049 v 14 h 18.171 c 0,0 8.02,-28.12 3.535,-34.945 -8.766,-13.338 -46.696,-13.339 -55.461,0 z"
   id="path92" />
		<path
   style="fill:#0098a0"
   d="m 125.452,337.336 c 18.786,2.027 37.739,1.966 56.515,-0.19 0.71,-4.713 1.086,-9.384 0.602,-12.751 h -57.747 c -0.492,3.413 -0.099,8.164 0.63,12.941 z"
   id="path93" />
		<path
   style="fill:#feb101"
   d="m 136.542,282.543 c -11.809,6.411 -22.159,15.995 -29.678,28.155 -4.168,-2.043 -8.336,-4.084 -12.504,-6.126 6.057,-15.547 16.161,-29.54 29.546,-40.43 -0.001,-0.002 -0.001,-0.002 -0.001,-0.002 6.796,-4.672 15.026,-2.968 17.571,2.63 2.57,5.62 0.087,12.288 -4.934,15.773 z"
   id="path94" />
		<path
   style="fill:#feb101"
   d="m 180.155,261.657 c 12.884,3.817 26.979,4.359 40.895,1.077 1.502,4.391 3.006,8.781 4.51,13.174 -15.276,6.71 -32.315,9.46 -49.48,7.695 -0.001,0.002 -0.001,0.002 -0.001,0.002 -8.109,-1.502 -12.724,-8.526 -10.565,-14.284 2.155,-5.791 8.625,-8.75 14.641,-7.664 z"
   id="path95" />
		<path
   style="fill:#feb101"
   d="m 175.057,258.403 c -8.23,-9.252 -34.495,-9.252 -42.725,0 -13.986,15.726 -19.039,71.262 -19.039,71.262 26.694,5.092 54.11,5.092 80.804,0 -0.001,0 -5.055,-55.536 -19.04,-71.262 z"
   id="path96" />
		<path
   style="fill:#feb101"
   d="m 175.057,258.403 c -8.23,-9.252 -34.495,-9.252 -42.725,0 -13.986,15.726 -19.039,71.262 -19.039,71.262 26.694,5.092 54.11,5.092 80.804,0 -0.001,0 -5.055,-55.536 -19.04,-71.262 z"
   id="path97" />
		<path
   style="fill:#e29700"
   d="m 184.096,262.703 c -1.324,-0.317 -2.641,-0.66 -3.941,-1.046 -0.931,-0.168 -1.872,-0.228 -2.806,-0.207 -0.736,-1.13 -1.499,-2.155 -2.292,-3.047 -8.23,-9.252 -34.495,-9.252 -42.725,0 -0.842,0.946 -1.65,2.04 -2.428,3.255 -1.986,0.349 -4.017,1.137 -5.937,2.445 6.494,5.85 15.087,9.413 24.516,9.413 h 9.628 c 10.156,10e-4 19.347,-4.135 25.985,-10.813 z"
   id="path98" />
		<g
   id="g100">
			<path
   style="fill:#e29700"
   d="m 126.543,280.851 c 0,0 -13.251,15.828 -19.441,26.417 l -12.743,-2.695 c 4.169,2.042 8.337,4.083 12.504,6.126 3.304,-5.345 7.156,-10.189 11.438,-14.488 -3.541,17.331 -5.009,33.455 -5.009,33.455 1.852,0.354 3.708,0.676 5.566,0.98 0.717,-6.62 2.119,-22.554 4.342,-33.435 z"
   id="path99" />
			<path
   style="fill:#e29700"
   d="m 186.273,284.117 c 13.666,-0.005 27.042,-2.831 39.286,-8.209 -1.504,-4.393 -3.008,-8.783 -4.51,-13.174 l 1.253,12.337 c -23.69,8.268 -42.53,4.048 -42.53,4.048 l 1.668,6.281 c 3.989,15.02 7.246,37.002 8.179,45.064 1.494,-0.252 2.986,-0.515 4.476,-0.799 0.001,0 -2.229,-24.488 -7.822,-45.548 z"
   id="path100" />
		</g>
		<path
   style="fill:#fdea74"
   d="m 181.775,321.603 c -5.309,-2.81 -9.652,-7.153 -12.463,-12.463 1.495,-0.792 2.991,-1.583 4.486,-2.375 2.335,4.41 5.942,8.018 10.352,10.353 -0.792,1.495 -1.583,2.99 -2.375,4.485 z"
   id="path101" />
		<path
   style="fill:#fdea74"
   d="m 125.613,321.603 c 5.309,-2.81 9.652,-7.153 12.463,-12.463 -1.495,-0.792 -2.991,-1.583 -4.486,-2.375 -2.335,4.41 -5.942,8.018 -10.353,10.353 0.793,1.495 1.584,2.99 2.376,4.485 z"
   id="path102" />
		<rect
   x="152.06599"
   y="258.202"
   style="fill:#fdea74"
   width="3.257"
   height="75.268997"
   id="rect102" />
		<g
   id="g106">
			<path
   style="fill:#ffffff"
   d="m 140.395,294.721 c 0,0.854 -0.692,1.546 -1.546,1.546 v 0 c -0.854,0 -1.546,-0.691 -1.546,-1.546 v -34.972 c 0,-0.855 0.692,-1.547 1.546,-1.547 v 0 c 0.854,0 1.546,0.691 1.546,1.547 z"
   id="path103" />
			<path
   style="fill:#ffffff"
   d="m 170.117,294.721 c 0,0.854 -0.691,1.546 -1.546,1.546 v 0 c -0.854,0 -1.546,-0.691 -1.546,-1.546 v -34.972 c 0,-0.855 0.692,-1.547 1.546,-1.547 v 0 c 0.855,0 1.546,0.691 1.546,1.547 z"
   id="path104" />
			<path
   style="fill:#e77544"
   d="m 142.261,288.647 c 0,1.902 -1.542,3.445 -3.445,3.445 -1.903,0 -3.446,-1.543 -3.446,-3.445 0,-1.903 1.543,-3.445 3.446,-3.445 1.903,0 3.445,1.542 3.445,3.445 z"
   id="path105" />
			<path
   style="fill:#e77544"
   d="m 172.019,288.647 c 0,1.902 -1.543,3.445 -3.446,3.445 -1.903,0 -3.446,-1.543 -3.446,-3.445 0,-1.903 1.543,-3.445 3.446,-3.445 1.903,0 3.446,1.542 3.446,3.445 z"
   id="path106" />
		</g>
		<g
   id="g120">
			<path
   style="fill:#c9771d"
   d="m 194.714,224.718 c 0,22.877 -18.545,41.422 -41.421,41.422 -22.877,0 -41.421,-18.545 -41.421,-41.422 0,-22.877 18.544,-41.421 41.421,-41.421 22.876,0 41.421,18.544 41.421,41.421 z"
   id="path107" />
			<g
   id="g110">
				<path
   style="fill:#ffd097"
   d="m 116.171,245.021 c -4.087,0 -7.395,-3.311 -7.395,-7.394 v 0 c 0,-4.082 3.308,-7.393 7.395,-7.393 h 75.048 c 4.082,0 7.393,3.311 7.393,7.393 v 0 c 0,4.083 -3.311,7.394 -7.393,7.394 z"
   id="path108" />
				<g
   id="g109">
					<path
   style="fill:#f5be7d"
   d="m 116.171,233.577 c -2.234,0 -4.053,1.817 -4.053,4.051 0,2.234 1.819,4.053 4.053,4.053 h 75.048 c 2.233,0 4.052,-1.818 4.052,-4.053 0,-2.233 -1.819,-4.051 -4.052,-4.051 z"
   id="path109" />
				</g>
			</g>
			<path
   style="fill:#ffd097"
   d="m 148.883,267.404 c -18.552,0 -33.59,-15.042 -33.59,-33.595 v 0 c 0,-18.549 15.038,-33.59 33.59,-33.59 h 8.824 c 18.551,0 33.592,15.041 33.592,33.59 v 0 c 0,18.553 -15.041,33.595 -33.59,33.595 z"
   id="path110" />
			<path
   style="fill:#c9771d"
   d="m 108.821,224.395 c 0.119,10e-4 0.237,0.009 0.357,0.009 h 13.169 c 19.997,0 37.257,-11.719 45.299,-28.662 -0.119,-10e-4 -0.236,-0.009 -0.355,-0.009 h -13.168 c -20.001,-0.001 -37.261,11.719 -45.302,28.662 z"
   id="path111" />
			<path
   style="fill:#d68738"
   d="m 125.12,214.624 c 0.062,-0.018 0.124,-0.03 0.186,-0.048 l 6.771,-1.933 c 10.281,-2.934 17.434,-11.491 19.083,-21.383 -0.061,0.018 -0.123,0.031 -0.184,0.049 l -6.77,1.931 c -10.284,2.936 -17.437,11.493 -19.086,21.384 z"
   id="path112" />
			<path
   style="fill:#c9771d"
   d="m 153.292,257.739 c -5.356,0 -10.716,-1.874 -14.896,-5.617 -0.614,-0.553 -0.667,-1.496 -0.113,-2.114 0.549,-0.613 1.496,-0.659 2.108,-0.112 7.237,6.482 18.57,6.483 25.8,0 0.614,-0.555 1.561,-0.506 2.114,0.112 0.55,0.618 0.503,1.562 -0.116,2.114 -4.176,3.743 -9.538,5.617 -14.897,5.617 z"
   id="path113" />
			<path
   style="fill:#e77544"
   d="m 152.556,243.599 c -2.219,0 -4.014,-1.799 -4.014,-4.016 0,0 1.795,-10.932 4.014,-10.932 v 0 c 2.218,0 4.012,10.932 4.012,10.932 0,2.217 -1.795,4.016 -4.012,4.016 z"
   id="path114" />
			<path
   style="fill:#171e21"
   d="m 177.389,233.625 c 0,2.866 -2.321,5.189 -5.187,5.189 -2.866,0 -5.188,-2.322 -5.188,-5.189 0,-2.865 2.322,-5.189 5.188,-5.189 2.865,0 5.187,2.324 5.187,5.189 z"
   id="path115" />
			<path
   style="fill:#f7b27b"
   d="m 183.68,246.308 c 0,2.865 -2.321,5.188 -5.187,5.188 -2.867,0 -5.189,-2.322 -5.189,-5.188 0,-2.865 2.322,-5.189 5.189,-5.189 2.865,-0.001 5.187,2.323 5.187,5.189 z"
   id="path116" />
			<path
   style="fill:#f7b27b"
   d="m 133.412,246.308 c 0,2.865 -2.321,5.188 -5.186,5.188 -2.867,0 -5.189,-2.322 -5.189,-5.188 0,-2.865 2.322,-5.189 5.189,-5.189 2.864,-0.001 5.186,2.323 5.186,5.189 z"
   id="path117" />
			<path
   style="fill:#171e21"
   d="m 137.604,233.625 c 0,2.866 -2.323,5.189 -5.188,5.189 -2.865,0 -5.188,-2.322 -5.188,-5.189 0,-2.865 2.323,-5.189 5.188,-5.189 2.865,0 5.188,2.324 5.188,5.189 z"
   id="path118" />
			<path
   style="fill:#ffffff"
   d="m 171.757,231.625 c 0,0.86 -0.696,1.557 -1.556,1.557 -0.86,0 -1.557,-0.696 -1.557,-1.557 0,-0.859 0.697,-1.557 1.557,-1.557 0.86,0 1.556,0.698 1.556,1.557 z"
   id="path119" />
			<path
   style="fill:#ffffff"
   d="m 131.973,231.625 c 0,0.86 -0.697,1.557 -1.557,1.557 -0.859,0 -1.556,-0.696 -1.556,-1.557 0,-0.859 0.697,-1.557 1.556,-1.557 0.86,0 1.557,0.698 1.557,1.557 z"
   id="path120" />
		</g>
		<g
   id="g126">
			<g
   id="g122">
				<polygon
   style="fill:#ff4200"
   points="129.371,355.816 147.688,355.816 147.688,374.15 132.371,374.15 "
   id="polygon120" />
				<path
   style="fill:#ff6d00"
   d="m 135.02,361.483 c -6.996,0 -12.667,5.671 -12.667,12.667 h 25.334 c 10e-4,-6.996 -5.671,-12.667 -12.667,-12.667 z"
   id="path121" />
				<path
   style="fill:#ffb583"
   d="m 134.49,365.503 c 0,1.56 -1.265,2.824 -2.825,2.824 -1.56,0 -2.825,-1.265 -2.825,-2.824 0,-1.56 1.265,-2.825 2.825,-2.825 1.561,0 2.825,1.264 2.825,2.825 z"
   id="path122" />
				<rect
   x="122.354"
   y="374.14999"
   style="fill:#ffb583"
   width="25.334"
   height="2.934"
   id="rect122" />
				<polygon
   style="fill:#ffb583"
   points="129.371,355.816 129.834,358.645 147.688,358.645 147.688,355.816 "
   id="polygon122" />
			</g>
			<g
   id="g125">
				<g
   id="g124">
					<polygon
   style="fill:#ff4200"
   points="178.018,355.816 159.702,355.816 159.702,374.15 175.018,374.15 "
   id="polygon123" />
					<g
   id="g123">
						<path
   style="fill:#ff6d00"
   d="m 172.369,361.483 c -6.996,0 -12.667,5.671 -12.667,12.667 h 25.334 c 0,-6.996 -5.672,-12.667 -12.667,-12.667 z"
   id="path123" />
					</g>
				</g>
				<path
   style="fill:#ffb583"
   d="m 165.899,365.503 c 0,1.56 1.265,2.824 2.825,2.824 1.56,0 2.825,-1.265 2.825,-2.824 0,-1.56 -1.265,-2.825 -2.825,-2.825 -1.56,0 -2.825,1.264 -2.825,2.825 z"
   id="path124" />
				<rect
   x="159.702"
   y="374.14999"
   style="fill:#ffb583"
   width="25.334"
   height="2.934"
   id="rect124" />
				<polygon
   style="fill:#ffb583"
   points="178.018,355.816 177.555,358.645 159.702,358.645 159.702,355.816 "
   id="polygon124" />
			</g>
		</g>
	</g>
	<g
   id="g139"
   inkscape:label="umbrella">
		<g
   id="g133">
			<g
   id="g132">
				<g
   id="g128">
					<path
   style="fill:#072431"
   d="m 236.391,290.974 h -1.354 c -6.736,0 -12.216,-5.479 -12.216,-12.215 V 146.847 c 0,-1.719 1.394,-3.113 3.112,-3.113 1.719,0 3.112,1.395 3.112,3.113 v 131.912 c 0,3.303 2.688,5.989 5.992,5.989 h 1.354 c 3.303,0 5.99,-2.686 5.99,-5.989 0,-1.72 1.393,-3.112 3.111,-3.112 1.721,0 3.114,1.393 3.114,3.112 0,6.735 -5.48,12.215 -12.215,12.215 z"
   id="path127" />
				</g>
				<path
   style="fill:#0f4967"
   d="m 245.492,275.647 c -1.719,0 -3.111,1.393 -3.111,3.112 0,3.303 -2.688,5.989 -5.99,5.989 h -1.354 c -3.305,0 -5.992,-2.686 -5.992,-5.989 v -59.288 l -6.224,0.001 v 59.287 c 0,6.735 5.48,12.215 12.216,12.215 h 1.354 c 6.735,0 12.216,-5.479 12.216,-12.215 -0.001,-1.72 -1.394,-3.112 -3.115,-3.112 z"
   id="path128" />
				<path
   style="fill:#ffd097"
   d="m 230.354,274.113 c 1.235,-0.421 1.906,-1.664 1.507,-2.743 -0.4,-1.081 -1.673,-1.607 -2.854,-1.205 -1.18,0.403 -1.864,1.598 -1.52,2.697 0.344,1.099 1.632,1.672 2.867,1.251 z"
   id="path129" />
				<path
   style="fill:#ffd097"
   d="m 223.556,267.26 c 1.294,-0.447 1.976,-1.789 1.535,-2.961 -0.442,-1.174 -1.789,-1.753 -3.019,-1.327 -1.229,0.426 -1.93,1.713 -1.552,2.908 0.377,1.195 1.742,1.828 3.036,1.38 z"
   id="path130" />
				<path
   style="fill:#ffd097"
   d="m 228.697,265.863 c 1.295,-0.447 1.977,-1.789 1.535,-2.961 -0.441,-1.174 -1.789,-1.753 -3.02,-1.327 -1.229,0.426 -1.929,1.713 -1.551,2.908 0.378,1.196 1.743,1.828 3.036,1.38 z"
   id="path131" />
				<path
   style="fill:#ffd097"
   d="m 229.78,270.009 c 1.294,-0.447 1.976,-1.789 1.534,-2.961 -0.441,-1.174 -1.788,-1.753 -3.019,-1.327 -1.23,0.426 -1.93,1.713 -1.552,2.908 0.378,1.195 1.743,1.828 3.037,1.38 z"
   id="path132" />
				<circle
   style="fill:#0f4967"
   cx="225.933"
   cy="219.47099"
   r="3.112"
   id="circle132" />
			</g>
		</g>
		<g
   id="g138">
			<path
   style="fill:#ff5f48"
   d="m 226.621,101.937 c 0,1.879 -1.523,3.402 -3.403,3.402 v 0 c -1.878,0 -3.401,-1.523 -3.401,-3.402 v -5.045 c 0,-1.88 1.523,-3.402 3.401,-3.402 v 0 c 1.879,0 3.403,1.522 3.403,3.402 z"
   id="path133" />
			<g
   id="g137">
				<path
   style="fill:#ff5f48"
   d="m 223.222,98.251 c -60.579,0.09 -114.114,33.894 -125.037,80.839 6.474,-3.434 14.548,-6.046 23.476,-7.28 14.788,-1.99 43.083,0.244 51.108,4.536 9.467,-8.966 28.43,-15.814 50.453,-15.781 22.032,-0.028 40.985,6.815 50.454,15.778 8.047,-4.285 36.327,-6.521 51.11,-4.531 8.96,1.238 17.003,3.846 23.467,7.278 C 337.34,132.145 283.795,98.343 223.222,98.251 Z"
   id="path134" />
				<path
   style="fill:#ff5f48"
   d="m 223.222,98.251 c -60.579,0.09 -114.114,33.894 -125.037,80.839 6.474,-3.434 14.548,-6.046 23.476,-7.28 14.788,-1.99 43.083,0.244 51.108,4.536 9.467,-8.966 28.43,-15.814 50.453,-15.781 22.032,-0.028 40.985,6.815 50.454,15.778 8.047,-4.285 36.327,-6.521 51.11,-4.531 8.96,1.238 17.003,3.846 23.467,7.278 C 337.34,132.145 283.795,98.343 223.222,98.251 Z"
   id="path135" />
				<path
   style="fill:#c81b00"
   d="m 223.222,98.251 c 0,20.772 0,41.543 0,62.313 22.032,-0.028 40.985,6.815 50.454,15.778 8.047,-4.285 36.327,-6.521 51.11,-4.531 8.96,1.238 17.003,3.846 23.467,7.278 C 337.34,132.145 283.795,98.343 223.222,98.251 Z"
   id="path136" />
				<path
   style="fill:#e42503"
   d="m 259.248,129.928 c -17.201,-24.804 -35.974,-31.667 -36.026,-31.677 -0.051,0.009 -18.824,6.873 -36.024,31.677 -13.155,18.9 -14.477,46.406 -14.429,46.418 9.467,-8.966 28.43,-15.814 50.453,-15.781 22.023,-0.033 40.987,6.817 50.454,15.778 0.051,-0.009 -1.271,-27.515 -14.428,-46.415 z"
   id="path137" />
			</g>
			<path
   style="fill:#ff5f48"
   d="m 223.222,98.251 c -1.959,0.003 -3.912,0.043 -5.855,0.115 0.155,1.23 2.713,2.209 5.855,2.209 3.145,0 5.704,-0.979 5.856,-2.209 -1.944,-0.072 -3.895,-0.112 -5.856,-0.115 z"
   id="path138" />
		</g>
	</g>
	<g
   id="g200"
   style="display:inline"
   inkscape:label="girl">
		<path
   style="fill:#a37140"
   d="m 334.828,235.814 c 0,25.553 -20.716,34.269 -46.27,34.269 -25.553,0 -46.269,-8.716 -46.269,-34.269 0,-25.554 20.716,-46.27 46.269,-46.27 25.554,10e-4 46.27,20.717 46.27,46.27 z"
   id="path139" />
		<g
   id="g143">
			<g
   id="g142">
				<path
   style="fill:#a37140"
   d="m 242.889,237.148 c 0,10.213 -2.438,19.914 -8.583,28.694 13.714,-6.587 22.571,-16.986 22.571,-28.694 z"
   id="path140" />
				<path
   style="fill:#a37140"
   d="m 248.893,248.075 c 0,10.214 -3.439,19.915 -9.583,28.695 13.714,-6.588 22.57,-16.987 22.57,-28.695 z"
   id="path141" />
				<path
   style="fill:#a37140"
   d="m 257.839,252.238 c 0,10.213 -3.439,19.915 -9.584,28.695 13.715,-6.588 22.571,-16.987 22.571,-28.695 z"
   id="path142" />
			</g>
		</g>
		<g
   id="g146">
			<g
   id="g145">
				<path
   style="fill:#a37140"
   d="m 334.555,237.309 c 0,10.213 2.438,19.914 8.583,28.694 -13.714,-6.587 -22.571,-16.986 -22.571,-28.694 z"
   id="path143" />
				<path
   style="fill:#a37140"
   d="m 328.551,248.236 c 0,10.214 3.439,19.915 9.583,28.695 -13.714,-6.588 -22.57,-16.987 -22.57,-28.695 z"
   id="path144" />
				<path
   style="fill:#a37140"
   d="m 319.604,252.399 c 0,10.213 3.439,19.915 9.584,28.695 -13.715,-6.588 -22.571,-16.987 -22.571,-28.695 z"
   id="path145" />
			</g>
		</g>
		<path
   style="fill:#feb101"
   d="m 264.449,319.504 c -3.93,7.082 3.096,36.259 3.096,36.259 h 15.916 v -14.526 h 10.553 v 14.526 h 15.916 c 0,0 7.025,-29.177 3.096,-36.259 -7.678,-13.839 -40.899,-13.841 -48.577,0 z"
   id="path146" />
		<path
   style="fill:#0098a0"
   d="m 259.433,336.588 c 19.492,2.104 39.157,2.039 58.639,-0.198 0.737,-4.89 1.127,-9.736 0.624,-13.229 h -59.918 c -0.51,3.54 -0.101,8.47 0.655,13.427 z"
   id="path147" />
		<path
   style="fill:#ff6d00"
   d="m 305.678,289.654 c -6.526,-7.337 -27.355,-7.337 -33.881,0 -11.091,12.47 -15.098,56.509 -15.098,56.509 21.168,4.039 42.908,4.039 64.076,0 0,0 -4.006,-44.039 -15.097,-56.509 z"
   id="path148" />
		<path
   style="fill:#e55c00"
   d="m 319.543,335.817 c -1.912,-13.812 -6.193,-37.537 -13.865,-46.163 -6.526,-7.337 -27.355,-7.337 -33.881,0 -7.672,8.626 -11.953,32.352 -13.865,46.163 20.398,3.996 41.213,3.996 61.611,0 z"
   id="path149" />
		<path
   style="fill:#ffb583"
   d="m 307.448,254.688 c -7.208,-9.6 -30.214,-9.6 -37.423,0 -12.25,16.317 -16.676,73.94 -16.676,73.94 23.381,5.283 47.394,5.283 70.775,0 10e-4,0 -4.426,-57.623 -16.676,-73.94 z"
   id="path150" />
		<g
   id="g151">
			<path
   style="fill:#ffb583"
   d="m 307.448,254.688 c -7.208,-9.6 -30.214,-9.6 -37.423,0 -12.25,16.317 -16.676,73.94 -16.676,73.94 23.381,5.283 47.394,5.283 70.775,0 10e-4,0 -4.426,-57.623 -16.676,-73.94 z"
   id="path151" />
		</g>
		<g
   id="g152">
			<path
   style="fill:#ef9e67"
   d="m 288.737,252.487 c 6.564,0 12.34,2.042 14.712,5.202 8.426,11.223 13.451,53.429 15.229,72.06 1.818,-0.347 3.635,-0.713 5.446,-1.122 0,0 -4.427,-57.623 -16.677,-73.94 -7.208,-9.6 -30.214,-9.6 -37.423,0 -12.25,16.317 -16.676,73.94 -16.676,73.94 1.811,0.409 3.627,0.775 5.445,1.121 1.776,-18.627 6.797,-60.829 15.229,-72.059 2.374,-3.16 8.15,-5.202 14.715,-5.202 z"
   id="path152" />
		</g>
		<g
   id="g170">
			<g
   id="g160">
				<g
   id="g159">
					<g
   id="g158">
						<g
   id="g157">
							<g
   id="g156">
								<path
   style="fill:#ffd097"
   d="m 239.098,323.533 c 4.266,0.736 8.529,1.473 12.795,2.21 0.717,-6.594 2.074,-13.146 4.072,-19.559 -3.27,-1.245 -6.537,-2.488 -9.807,-3.733 -3.013,6.749 -5.383,13.807 -7.06,21.082 z"
   id="path153" />
								<path
   style="fill:#ffd097"
   d="m 247.627,325.006 c -0.213,1.235 0.598,2.382 1.778,2.556 1.184,0.174 2.284,-0.643 2.487,-1.818 0.202,-1.177 -0.561,-2.314 -1.732,-2.548 -1.172,-0.231 -2.32,0.576 -2.533,1.81 z"
   id="path154" />
								<path
   style="fill:#ffd097"
   d="m 243.096,324.702 c -0.236,1.4 0.646,2.69 1.934,2.87 1.288,0.181 2.485,-0.758 2.71,-2.089 0.224,-1.331 -0.601,-2.61 -1.878,-2.86 -1.275,-0.25 -2.53,0.678 -2.766,2.079 z"
   id="path155" />
								<path
   style="fill:#ffd097"
   d="m 239.098,323.533 c -0.23,1.334 0.568,2.563 1.749,2.735 1.184,0.174 2.296,-0.725 2.517,-1.999 0.219,-1.274 -0.527,-2.492 -1.701,-2.726 -1.172,-0.233 -2.335,0.656 -2.565,1.99 z"
   id="path156" />
							</g>
						</g>
					</g>
				</g>
				<path
   style="fill:#ffb583"
   d="m 278.918,286.59 c -10.905,8.686 -19.746,20.351 -25.229,34.134 -4.627,-1.333 -9.256,-2.664 -13.884,-3.997 3.376,-16.979 11.169,-33.104 22.874,-46.65 0,-0.003 0,-0.003 0,-0.003 6.098,-6.002 14.814,-5.75 18.427,-0.491 3.644,5.275 2.313,12.537 -2.188,17.007 z"
   id="path159" />
				<path
   style="fill:#ef9e67"
   d="m 252.83,317.697 -13.024,-0.971 c 4.628,1.333 9.257,2.664 13.884,3.997 1.938,-4.872 4.855,-9.186 7.575,-13.491 0,0 0.505,-3.037 1.469,-5.49 0.77,-1.959 2.903,-7.296 2.903,-7.296 -4.897,4.757 -10.113,17.374 -12.807,23.251 z"
   id="path160" />
			</g>
			<g
   id="g169">
				<g
   id="g167">
					<g
   id="g166">
						<g
   id="g165">
							<g
   id="g164">
								<path
   style="fill:#ffd097"
   d="m 338.378,323.533 c -4.266,0.736 -8.529,1.473 -12.795,2.21 -0.717,-6.594 -2.074,-13.146 -4.072,-19.559 3.27,-1.245 6.537,-2.488 9.807,-3.733 3.012,6.749 5.382,13.807 7.06,21.082 z"
   id="path161" />
								<path
   style="fill:#ffd097"
   d="m 329.849,325.006 c 0.213,1.235 -0.598,2.382 -1.778,2.556 -1.184,0.174 -2.284,-0.643 -2.487,-1.818 -0.202,-1.177 0.561,-2.314 1.732,-2.548 1.171,-0.231 2.32,0.576 2.533,1.81 z"
   id="path162" />
								<path
   style="fill:#ffd097"
   d="m 334.38,324.702 c 0.236,1.4 -0.646,2.69 -1.934,2.87 -1.288,0.181 -2.485,-0.758 -2.71,-2.089 -0.224,-1.331 0.601,-2.61 1.878,-2.86 1.275,-0.25 2.53,0.678 2.766,2.079 z"
   id="path163" />
								<path
   style="fill:#ffd097"
   d="m 338.378,323.533 c 0.23,1.334 -0.568,2.563 -1.749,2.735 -1.184,0.174 -2.296,-0.725 -2.517,-1.999 -0.219,-1.274 0.527,-2.492 1.701,-2.726 1.171,-0.233 2.334,0.656 2.565,1.99 z"
   id="path164" />
							</g>
						</g>
					</g>
				</g>
				<path
   style="fill:#ffb583"
   d="m 298.558,286.59 c 10.905,8.686 19.746,20.351 25.229,34.134 4.627,-1.333 9.256,-2.664 13.884,-3.997 -3.376,-16.979 -11.169,-33.104 -22.874,-46.65 0,-0.003 0,-0.003 0,-0.003 -6.098,-6.002 -14.815,-5.75 -18.427,-0.491 -3.644,5.275 -2.313,12.537 2.188,17.007 z"
   id="path167" />
				<path
   style="fill:#ef9e67"
   d="m 317.113,272.862 c -0.755,-0.939 -1.525,-1.87 -2.317,-2.786 0,-0.003 0,-0.003 0,-0.003 -0.209,-0.205 -0.428,-0.386 -0.643,-0.576 -1.912,-6.145 -4.136,-11.388 -6.705,-14.81 -7.208,-9.6 -30.214,-9.6 -37.423,0 -2.569,3.423 -4.794,8.667 -6.706,14.811 -0.214,0.191 -0.432,0.369 -0.64,0.574 0,0 0,0 0,0.003 -0.919,1.063 -1.805,2.148 -2.676,3.243 6.873,6.684 16.248,10.806 26.592,10.806 h 3.456 c 10.579,10e-4 20.15,-4.307 27.062,-11.262 z"
   id="path168" />
				<path
   style="fill:#ef9e67"
   d="m 324.645,317.697 13.024,-0.971 c -4.628,1.333 -9.257,2.664 -13.884,3.997 -1.938,-4.872 -4.855,-9.186 -7.575,-13.491 0,0 -0.505,-3.037 -1.469,-5.49 -0.77,-1.959 -2.903,-7.296 -2.903,-7.296 4.897,4.757 10.113,17.374 12.807,23.251 z"
   id="path169" />
			</g>
		</g>
		<g
   id="g171">
			<path
   style="fill:#ffd8bd"
   d="m 311.873,324.264 c -5.508,-2.916 -10.014,-7.422 -12.932,-12.932 1.552,-0.821 3.103,-1.642 4.655,-2.464 2.423,4.576 6.165,8.319 10.741,10.741 -0.82,1.552 -1.642,3.104 -2.464,4.655 z"
   id="path170" />
			<path
   style="fill:#ffd8bd"
   d="m 264.601,324.264 c 5.509,-2.916 10.015,-7.422 12.932,-12.932 -1.552,-0.821 -3.104,-1.642 -4.655,-2.464 -2.422,4.576 -6.164,8.319 -10.741,10.741 0.82,1.552 1.642,3.104 2.464,4.655 z"
   id="path171" />
		</g>
		<rect
   x="287.047"
   y="254.48"
   style="fill:#ffd8bd"
   width="3.3800001"
   height="78.098"
   id="rect171" />
		<g
   id="g175">
			<path
   style="fill:#ffffff"
   d="m 279.089,298.596 c 0,0.887 -0.718,1.604 -1.604,1.604 v 0 c -0.886,0 -1.604,-0.718 -1.604,-1.604 V 262.31 c 0,-0.888 0.718,-1.604 1.604,-1.604 v 0 c 0.887,0 1.604,0.717 1.604,1.604 z"
   id="path172" />
			<path
   style="fill:#ffffff"
   d="m 301.627,298.596 c 0,0.887 -0.717,1.604 -1.604,1.604 v 0 c -0.886,0 -1.605,-0.718 -1.605,-1.604 V 262.31 c 0,-0.888 0.719,-1.604 1.605,-1.604 v 0 c 0.887,0 1.604,0.717 1.604,1.604 z"
   id="path173" />
			<path
   style="fill:#e77544"
   d="m 281.025,292.295 c 0,1.974 -1.602,3.574 -3.576,3.574 -1.974,0 -3.574,-1.601 -3.574,-3.574 0,-1.976 1.601,-3.575 3.574,-3.575 1.975,0 3.576,1.599 3.576,3.575 z"
   id="path174" />
			<path
   style="fill:#e77544"
   d="m 303.6,292.295 c 0,1.974 -1.601,3.574 -3.576,3.574 -1.975,0 -3.575,-1.601 -3.575,-3.574 0,-1.976 1.601,-3.575 3.575,-3.575 1.975,0 3.576,1.599 3.576,3.575 z"
   id="path175" />
		</g>
		<g
   id="g188">
			<g
   id="g178">
				<path
   style="fill:#ffd097"
   d="m 252.803,254.292 c -4.24,0 -7.672,-3.436 -7.672,-7.672 v 0 c 0,-4.235 3.432,-7.67 7.672,-7.67 h 71.87 c 4.235,0 7.671,3.435 7.671,7.67 v 0 c 0,4.236 -3.436,7.672 -7.671,7.672 z"
   id="path176" />
				<g
   id="g177">
					<path
   style="fill:#f5be7d"
   d="m 252.803,242.417 c -2.318,0 -4.205,1.886 -4.205,4.203 0,2.318 1.887,4.205 4.205,4.205 h 71.87 c 2.317,0 4.204,-1.887 4.204,-4.205 0,-2.317 -1.887,-4.203 -4.204,-4.203 z"
   id="path177" />
				</g>
			</g>
			<path
   style="fill:#ffd097"
   d="m 286.745,277.516 c -19.25,0 -34.852,-15.607 -34.852,-34.857 v 0 c 0,-19.246 15.602,-34.853 34.852,-34.853 h 3.155 c 19.248,0 34.855,15.606 34.855,34.853 v 0 c 0,19.25 -15.607,34.857 -34.854,34.857 z"
   id="path178" />
			<path
   style="fill:#e77544"
   d="m 285.199,251.096 c 0,1.956 1.582,3.542 3.539,3.542 1.955,0 3.538,-1.586 3.538,-3.542 z"
   id="path179" />
			<path
   style="fill:#171e21"
   d="m 317.597,244.542 c 0,0.726 -0.587,1.313 -1.313,1.313 h -5.411 c -0.726,0 -1.314,-0.588 -1.314,-1.313 v 0 c 0,-0.726 0.588,-1.314 1.314,-1.314 h 5.411 c 0.726,0.001 1.313,0.588 1.313,1.314 z"
   id="path180" />
			<path
   style="fill:#171e21"
   d="m 265.551,244.542 c 0,0.726 -0.588,1.313 -1.313,1.313 h -5.412 c -0.725,0 -1.313,-0.588 -1.313,-1.313 v 0 c 0,-0.726 0.588,-1.314 1.313,-1.314 h 5.412 c 0.725,0.001 1.313,0.588 1.313,1.314 z"
   id="path181" />
			<path
   style="fill:#171e21"
   d="m 313.322,244.542 c 0,2.974 -2.408,5.384 -5.381,5.384 -2.975,0 -5.385,-2.41 -5.385,-5.384 0,-2.973 2.41,-5.384 5.385,-5.384 2.973,0 5.381,2.411 5.381,5.384 z"
   id="path182" />
			<path
   style="fill:#f7b27b"
   d="m 319.85,255.626 c 0,2.973 -2.408,5.383 -5.381,5.383 -2.975,0 -5.385,-2.41 -5.385,-5.383 0,-2.973 2.41,-5.385 5.385,-5.385 2.972,0 5.381,2.412 5.381,5.385 z"
   id="path183" />
			<path
   style="fill:#ffffff"
   d="m 332.219,258.044 c 0,2.973 -2.409,5.383 -5.382,5.383 -2.975,0 -5.384,-2.41 -5.384,-5.383 0,-2.973 2.409,-5.385 5.384,-5.385 2.973,0 5.382,2.412 5.382,5.385 z"
   id="path184" />
			<path
   style="fill:#ffffff"
   d="m 280.783,262.746 c 0,4.393 3.561,7.955 7.957,7.955 4.394,0 7.953,-3.562 7.953,-7.955 z"
   id="path185" />
			<path
   style="fill:#ffffff"
   d="m 255.188,258.044 c 0,2.973 -2.408,5.383 -5.381,5.383 -2.975,0 -5.385,-2.41 -5.385,-5.383 0,-2.973 2.41,-5.385 5.385,-5.385 2.972,0 5.381,2.412 5.381,5.385 z"
   id="path186" />
			<path
   style="fill:#f7b27b"
   d="m 267.692,255.626 c 0,2.973 -2.409,5.383 -5.382,5.383 -2.975,0 -5.384,-2.41 -5.384,-5.383 0,-2.973 2.409,-5.385 5.384,-5.385 2.973,0 5.382,2.412 5.382,5.385 z"
   id="path187" />
			<circle
   style="fill:#171e21"
   cx="266.659"
   cy="244.54201"
   r="5.3839998"
   id="circle187" />
			<path
   style="fill:#ffffff"
   d="m 307.479,242.467 c 0,0.893 -0.723,1.615 -1.614,1.615 -0.893,0 -1.615,-0.723 -1.615,-1.615 0,-0.892 0.723,-1.615 1.615,-1.615 0.892,0 1.614,0.723 1.614,1.615 z"
   id="path188" />
			<circle
   style="fill:#ffffff"
   cx="264.58401"
   cy="242.467"
   r="1.615"
   id="circle188" />
		</g>
		<g
   id="g194">
			<g
   id="g190">
				<polygon
   style="fill:#547eff"
   points="283.5,374.786 270.085,374.786 267.457,355.763 283.5,355.763 "
   id="polygon188" />
				<path
   style="fill:#5455ff"
   d="m 271.568,362.389 c -6.59,0 -11.932,5.342 -11.932,11.933 H 283.5 c 0,-6.592 -5.342,-11.933 -11.932,-11.933 z"
   id="path189" />
				<path
   style="fill:#d7d9ff"
   d="m 270.365,367.25 c 0,1.47 -1.191,2.66 -2.661,2.66 -1.47,0 -2.661,-1.19 -2.661,-2.66 0,-1.47 1.191,-2.661 2.661,-2.661 1.47,0 2.661,1.191 2.661,2.661 z"
   id="path190" />
				<rect
   x="259.63599"
   y="374.32101"
   style="fill:#d7d9ff"
   width="23.864"
   height="2.763"
   id="rect190" />
				<polygon
   style="fill:#d7d9ff"
   points="283.5,358.697 283.5,355.763 267.457,355.763 267.863,358.697 "
   id="polygon190" />
			</g>
			<g
   id="g193">
				<g
   id="g192">
					<polygon
   style="fill:#547eff"
   points="293.945,374.786 307.361,374.786 309.988,355.763 293.945,355.763 "
   id="polygon191" />
					<g
   id="g191">
						<path
   style="fill:#5455ff"
   d="m 305.877,362.389 c -6.59,0 -11.932,5.342 -11.932,11.933 h 23.864 c 10e-4,-6.592 -5.341,-11.933 -11.932,-11.933 z"
   id="path191" />
					</g>
				</g>
				<path
   style="fill:#d7d9ff"
   d="m 298.004,367.25 c 0,1.47 1.191,2.66 2.66,2.66 1.471,0 2.661,-1.19 2.661,-2.66 0,-1.47 -1.19,-2.661 -2.661,-2.661 -1.469,0 -2.66,1.191 -2.66,2.661 z"
   id="path192" />
				<rect
   x="293.94501"
   y="374.32101"
   style="fill:#d7d9ff"
   width="23.865"
   height="2.763"
   id="rect192" />
				<polygon
   style="fill:#d7d9ff"
   points="293.945,358.697 293.945,355.763 309.988,355.763 309.583,358.697 "
   id="polygon192" />
			</g>
		</g>
		<g
   id="g197">
			<g
   id="g195">
				<path
   style="fill:#ba8556"
   d="m 316.292,235.38 c -0.248,0 -0.497,-0.088 -0.695,-0.269 -1.813,-1.641 -4.7,-2.619 -7.724,-2.619 -0.573,0 -1.037,-0.464 -1.037,-1.038 0,-0.573 0.464,-1.037 1.037,-1.037 3.576,0 6.898,1.15 9.115,3.156 0.426,0.384 0.459,1.041 0.074,1.465 -0.205,0.227 -0.487,0.342 -0.77,0.342 z"
   id="path194" />
			</g>
			<g
   id="g196">
				<path
   style="fill:#c9771d"
   d="m 261.183,235.38 c 0.248,0 0.497,-0.088 0.695,-0.269 1.814,-1.641 4.7,-2.619 7.724,-2.619 0.573,0 1.037,-0.464 1.037,-1.038 0,-0.573 -0.464,-1.037 -1.037,-1.037 -3.576,0 -6.898,1.15 -9.115,3.156 -0.426,0.384 -0.459,1.041 -0.074,1.465 0.204,0.227 0.486,0.342 0.77,0.342 z"
   id="path195" />
			</g>
		</g>
		<g
   id="g199">
			<path
   style="fill:#a37140"
   d="m 276.816,201.308 -25.25,17.222 -3.967,20.406 c 0,0 37.368,2.188 68.236,-27.268 z"
   id="path197" />
			<path
   style="fill:#a37140"
   d="m 290.329,237.455 c 0,0 6.587,-6.215 8.265,-21.779 1.679,-15.563 14.926,-1.816 14.926,-1.816 0,0 2.144,20.213 -23.191,23.595 z"
   id="path198" />
			<path
   style="fill:#a37140"
   d="m 333.573,240.71 c 0,0 -11.023,-5.853 -10.356,-21.492 0.666,-15.641 -14.487,-4.028 -14.487,-4.028 0,0 0.298,18.389 24.843,25.52 z"
   id="path199" />
		</g>
	<path
   style="fill:#b57c48"
   d="m 262.841,207.632 c -7.059,7.059 -10.986,16.184 -11.903,25.89 9.708,-0.915 18.833,-4.843 25.892,-11.903 7.06,-7.06 10.987,-16.185 11.902,-25.891 -9.707,0.916 -18.832,4.842 -25.891,11.904 z"
   id="path210" /><path
   style="fill:#b57c48"
   d="m 309.876,210.977 c -1.352,-8.593 -8.414,-14.618 -14.934,-15.244 2.912,5.942 4.226,11.353 5.192,16.888 0.9,5.545 1.434,11.087 0.627,17.653 5.955,-2.727 10.655,-10.733 9.115,-19.297 z"
   id="path211" /></g>
</g>







</svg>
