<?xml version="1.0" encoding="UTF-8" standalone="no"?>
<!-- Generator: Adobe Illustrator 27.5.0, SVG Export Plug-In . SVG Version: 6.00 Build 0)  -->

<svg
   version="1.1"
   id="Layer_1"
   x="0px"
   y="0px"
   viewBox="0 0 450 140.474"
   xml:space="preserve"
   sodipodi:docname="rain_clouds.svg"
   width="450"
   height="140.474"
   inkscape:version="1.4 (86a8ad7, 2024-10-11)"
   xmlns:inkscape="http://www.inkscape.org/namespaces/inkscape"
   xmlns:sodipodi="http://sodipodi.sourceforge.net/DTD/sodipodi-0.dtd"
   xmlns="http://www.w3.org/2000/svg"
   xmlns:svg="http://www.w3.org/2000/svg"><defs
   id="defs211" /><sodipodi:namedview
   id="namedview211"
   pagecolor="#505050"
   bordercolor="#eeeeee"
   borderopacity="1"
   inkscape:showpageshadow="0"
   inkscape:pageopacity="0"
   inkscape:pagecheckerboard="0"
   inkscape:deskcolor="#505050"
   inkscape:zoom="4.2822222"
   inkscape:cx="225"
   inkscape:cy="70.173845"
   inkscape:window-width="2560"
   inkscape:window-height="1369"
   inkscape:window-x="2481"
   inkscape:window-y="-8"
   inkscape:window-maximized="1"
   inkscape:current-layer="Layer_1"><inkscape:page
     x="0"
     y="2.4698143e-23"
     width="450"
     height="140.474"
     id="page2"
     margin="0"
     bleed="0" /></sodipodi:namedview>



<g
   id="g44"
   style="display:inline"
   inkscape:label="rain clouds">
	<g
   id="g16">
		<g
   id="g15">
			<g
   id="g14">
				<path
   style="fill:#698793"
   d="m 164.224,92.773 c 0,13.223 -10.72,23.942 -23.943,23.942 -13.223,0 -23.943,-10.72 -23.943,-23.942 0,-13.224 10.72,-23.943 23.943,-23.943 13.223,0 23.943,10.72 23.943,23.943 z"
   id="path2" />
				<path
   style="fill:#698793"
   d="m 47.886,92.773 c 0,13.223 -10.72,23.942 -23.943,23.942 C 10.72,116.716 0,105.996 0,92.773 0,79.55 10.72,68.83 23.943,68.83 c 13.223,0 23.943,10.72 23.943,23.943 z"
   id="path3" />
				<path
   style="fill:#698793"
   d="m 450,102.731 c 0,13.223 -10.719,23.942 -23.943,23.942 -13.223,0 -23.941,-10.719 -23.941,-23.942 0,-13.224 10.719,-23.943 23.941,-23.943 13.224,0 23.943,10.72 23.943,23.943 z"
   id="path4" />
				<path
   style="fill:#698793"
   d="m 417.004,96.922 c 0,19.834 -16.08,35.914 -35.914,35.914 -19.836,0 -35.914,-16.08 -35.914,-35.914 0,-19.835 16.078,-35.915 35.914,-35.915 19.834,0 35.914,16.08 35.914,35.915 z"
   id="path5" />
				<path
   style="fill:#698793"
   d="m 289.346,92.773 c 0,19.834 -16.078,35.914 -35.914,35.914 -19.834,0 -35.913,-16.08 -35.913,-35.914 0,-19.835 16.08,-35.915 35.913,-35.915 19.836,0 35.914,16.08 35.914,35.915 z"
   id="path6" />
				<path
   style="fill:#698793"
   d="m 220.334,81.605 c 0,19.834 -16.079,35.914 -35.914,35.914 -19.835,0 -35.914,-16.08 -35.914,-35.914 0,-19.835 16.079,-35.915 35.914,-35.915 19.835,0 35.914,16.081 35.914,35.915 z"
   id="path7" />
				<path
   style="fill:#698793"
   d="m 99.781,85.641 c 0,19.834 -16.079,35.914 -35.914,35.914 -19.835,0 -35.914,-16.08 -35.914,-35.914 0,-19.835 16.079,-35.915 35.914,-35.915 19.835,0 35.914,16.08 35.914,35.915 z"
   id="path8" />
				<path
   style="fill:#698793"
   d="m 136.457,110.731 c 0,9.917 -8.039,17.958 -17.957,17.958 -9.918,0 -17.957,-8.041 -17.957,-17.958 0,-9.918 8.04,-17.958 17.957,-17.958 9.917,0 17.957,8.04 17.957,17.958 z"
   id="path9" />
				<path
   style="fill:#698793"
   d="m 306.902,103.599 c 0,9.916 -8.039,17.956 -17.957,17.956 -9.916,0 -17.957,-8.04 -17.957,-17.956 0,-9.919 8.041,-17.959 17.957,-17.959 9.918,0 17.957,8.04 17.957,17.959 z"
   id="path10" />
				<path
   style="fill:#698793"
   d="m 359.516,96.923 c 0,9.917 -8.039,17.957 -17.957,17.957 -9.918,0 -17.957,-8.04 -17.957,-17.957 0,-9.918 8.039,-17.958 17.957,-17.958 9.918,0 17.957,8.04 17.957,17.958 z"
   id="path11" />
				<path
   style="fill:#698793"
   d="m 111.086,115.135 c 0,12.81 -10.385,23.197 -23.198,23.197 -12.811,0 -23.197,-10.387 -23.197,-23.197 0,-12.813 10.387,-23.199 23.197,-23.199 12.813,0 23.198,10.386 23.198,23.199 z"
   id="path12" />
				<path
   style="fill:#698793"
   d="m 239.006,116.531 c 0,13.224 -10.721,23.943 -23.943,23.943 -13.224,0 -23.943,-10.719 -23.943,-23.943 0,-13.223 10.719,-23.942 23.943,-23.942 13.222,0 23.943,10.72 23.943,23.942 z"
   id="path13" />
				<path
   style="fill:#698793"
   d="m 338.912,81.605 c 0,13.223 -10.721,23.942 -23.943,23.942 -13.223,0 -23.943,-10.72 -23.943,-23.942 0,-13.224 10.721,-23.943 23.943,-23.943 13.222,0 23.943,10.72 23.943,23.943 z"
   id="path14" />
			</g>
			<polygon
   style="fill:#698793"
   points="0,92.773 99.371,104.929 155.689,96.218 450,102.731 450,28.363 0,28.363 "
   id="polygon14" />
		</g>
	</g>
	<g
   id="g28">
		<g
   id="g27">
			<path
   style="fill:#7b9aaa"
   d="m 173.064,47.232 c 0,16.658 -13.503,30.162 -30.161,30.162 -16.66,0 -30.163,-13.504 -30.163,-30.162 0,-16.658 13.503,-30.163 30.163,-30.163 16.658,0 30.161,13.505 30.161,30.163 z"
   id="path16" />
			<path
   style="fill:#7b9aaa"
   d="M 60.326,47.232 C 60.326,63.89 46.82,77.394 30.163,77.394 13.506,77.394 0,63.891 0,47.232 0,30.573 13.506,17.069 30.163,17.069 c 16.657,0 30.163,13.505 30.163,30.163 z"
   id="path17" />
			<path
   style="fill:#7b9aaa"
   d="m 450,56.883 c 0,16.657 -13.504,30.162 -30.162,30.162 -16.658,0 -30.162,-13.505 -30.162,-30.162 0,-16.659 13.504,-30.163 30.162,-30.163 16.658,0 30.162,13.504 30.162,30.163 z"
   id="path18" />
			
				<circle
   transform="matrix(0.7071,-0.7071,0.7071,0.7071,68.336,283.0421)"
   style="fill:#7b9aaa"
   cx="375.82999"
   cy="59.032001"
   id="ellipse18"
   r="45.243999" />
			<path
   style="fill:#7b9aaa"
   d="m 297.797,47.232 c 0,24.986 -20.256,45.244 -45.244,45.244 -24.988,0 -45.243,-20.258 -45.243,-45.244 0,-24.987 20.255,-45.244 45.243,-45.244 24.988,0 45.244,20.257 45.244,45.244 z"
   id="path19" />
			<path
   style="fill:#7b9aaa"
   d="m 238.172,51.253 c 0,24.986 -20.256,45.243 -45.244,45.243 -24.987,0 -45.245,-20.257 -45.245,-45.243 0,-24.987 20.258,-45.244 45.245,-45.244 24.987,0 45.244,20.257 45.244,45.244 z"
   id="path20" />
			<path
   style="fill:#7b9aaa"
   d="m 114.097,56.883 c 0,24.986 -20.257,45.243 -45.244,45.243 -24.988,0 -45.243,-20.257 -45.243,-45.243 0,-24.988 20.255,-45.245 45.243,-45.245 24.987,0 45.244,20.257 45.244,45.245 z"
   id="path21" />
			<path
   style="fill:#7b9aaa"
   d="m 136.719,42.013 c 0,12.493 -10.127,22.622 -22.622,22.622 -12.492,0 -22.621,-10.129 -22.621,-22.622 0,-12.495 10.129,-22.623 22.621,-22.623 12.495,0 22.622,10.128 22.622,22.623 z"
   id="path22" />
			<path
   style="fill:#7b9aaa"
   d="m 309.59,36.411 c 0,12.493 -10.127,22.621 -22.621,22.621 -12.494,0 -22.623,-10.128 -22.623,-22.621 0,-12.495 10.129,-22.623 22.623,-22.623 12.494,0 22.621,10.128 22.621,22.623 z"
   id="path23" />
			<path
   style="fill:#7b9aaa"
   d="m 368.928,31.282 c 0,12.493 -10.127,22.622 -22.621,22.622 -12.494,0 -22.623,-10.129 -22.623,-22.622 0,-12.495 10.129,-22.623 22.623,-22.623 12.494,0 22.621,10.128 22.621,22.623 z"
   id="path24" />
			<path
   style="fill:#7b9aaa"
   d="m 121.354,68.902 c 0,16.139 -13.082,29.224 -29.224,29.224 -16.14,0 -29.225,-13.085 -29.225,-29.224 0,-16.141 13.085,-29.225 29.225,-29.225 16.142,0 29.224,13.085 29.224,29.225 z"
   id="path25" />
			<path
   style="fill:#7b9aaa"
   d="m 245.533,70.256 c 0,16.658 -13.504,30.162 -30.163,30.162 -16.659,0 -30.163,-13.504 -30.163,-30.162 0,-16.658 13.504,-30.163 30.163,-30.163 16.659,0 30.163,13.505 30.163,30.163 z"
   id="path26" />
			<path
   style="fill:#7b9aaa"
   d="m 342.348,47.232 c 0,16.658 -13.504,30.162 -30.162,30.162 -16.658,0 -30.162,-13.504 -30.162,-30.162 0,-16.659 13.504,-30.163 30.162,-30.163 16.658,0 30.162,13.504 30.162,30.163 z"
   id="path27" />
			<polygon
   style="fill:#7b9aaa"
   points="0,0 0,47.232 450,56.883 450,0 "
   id="polygon27" />
		</g>
	</g>
	<g
   id="g43">
		<g
   id="g42">
			<g
   id="g41">
				<g
   id="g40">
					<path
   style="fill:#97b1c2"
   d="m 283.93,0 c -4.359,5.229 -6.994,11.947 -6.994,19.289 0,16.658 13.504,30.163 30.162,30.163 16.66,0 30.162,-13.505 30.162,-30.163 0,-7.342 -2.633,-14.06 -6.994,-19.289 z"
   id="path28" />
					<path
   style="fill:#97b1c2"
   d="m 396.67,0 c -4.361,5.229 -6.996,11.947 -6.996,19.289 0,16.658 13.506,30.163 30.164,30.163 C 436.494,49.452 450,35.947 450,19.289 450,11.947 447.365,5.229 443.006,0 Z"
   id="path29" />
					<path
   style="fill:#97b1c2"
   d="M 1.587,0 C 0.564,3.027 0,6.266 0,9.639 0,26.298 13.503,39.802 30.162,39.802 46.821,39.802 60.325,26.298 60.325,9.639 60.325,6.266 59.761,3.028 58.738,0 Z"
   id="path30" />
					<path
   style="fill:#97b1c2"
   d="m 29.556,0 c -0.406,2.438 -0.629,4.937 -0.629,7.489 0,24.987 20.256,45.244 45.244,45.244 24.988,0 45.244,-20.257 45.244,-45.244 0,-2.553 -0.223,-5.052 -0.629,-7.489 z"
   id="path31" />
					<path
   style="fill:#97b1c2"
   d="m 156.541,0 c -2.768,5.854 -4.338,12.384 -4.338,19.289 0,24.987 20.256,45.244 45.244,45.244 24.988,0 45.244,-20.257 45.244,-45.244 0,-6.905 -1.572,-13.435 -4.34,-19.289 z"
   id="path32" />
					<path
   style="fill:#97b1c2"
   d="m 214.492,0 c -1.714,4.772 -2.663,9.907 -2.663,15.269 0,24.987 20.255,45.244 45.243,45.244 24.988,0 45.246,-20.257 45.246,-45.244 0,-5.361 -0.949,-10.497 -2.662,-15.269 z"
   id="path33" />
					<path
   style="fill:#97b1c2"
   d="m 336.957,0 c -0.676,3.108 -1.053,6.328 -1.053,9.639 0,24.988 20.256,45.245 45.244,45.245 24.988,0 45.242,-20.257 45.242,-45.245 0,-3.311 -0.377,-6.53 -1.053,-9.639 z"
   id="path34" />
					<path
   style="fill:#97b1c2"
   d="m 313.281,24.509 c 0,-12.493 10.127,-22.622 22.623,-22.622 12.492,0 22.621,10.129 22.621,22.622 0,12.495 -10.129,22.623 -22.621,22.623 -12.496,0 -22.623,-10.128 -22.623,-22.623 z"
   id="path35" />
					<path
   style="fill:#97b1c2"
   d="m 140.41,30.11 c 0,-12.493 10.127,-22.621 22.622,-22.621 12.493,0 22.622,10.128 22.622,22.621 0,12.495 -10.129,22.623 -22.622,22.623 -12.495,0 -22.622,-10.128 -22.622,-22.623 z"
   id="path36" />
					<path
   style="fill:#97b1c2"
   d="m 81.072,35.239 c 0,-12.493 10.127,-22.622 22.622,-22.622 12.493,0 22.622,10.129 22.622,22.622 0,12.495 -10.128,22.623 -22.622,22.623 -12.494,0 -22.622,-10.128 -22.622,-22.623 z"
   id="path37" />
					<path
   style="fill:#97b1c2"
   d="m 328.754,0 c 1.213,15.025 13.777,26.845 29.115,26.845 15.338,0 27.904,-11.819 29.117,-26.845 z"
   id="path38" />
					<path
   style="fill:#97b1c2"
   d="m 204.707,0 c 1.841,14.894 14.529,26.429 29.921,26.429 15.395,0 28.082,-11.534 29.922,-26.429 z"
   id="path39" />
					<path
   style="fill:#97b1c2"
   d="m 114.646,0 c -4.361,5.229 -6.995,11.947 -6.995,19.289 0,16.659 13.504,30.163 30.163,30.163 16.658,0 30.163,-13.504 30.163,-30.163 0,-7.342 -2.634,-14.06 -6.995,-19.289 z"
   id="path40" />
				</g>
			</g>
			<polygon
   style="fill:#97b1c2"
   points="0,0 0,9.639 450,19.289 450,0 "
   id="polygon41" />
		</g>
	</g>
</g>










</svg>
